<svg width="22" height="24" viewBox="0 0 22 24" fill="none" xmlns="http://www.w3.org/2000/svg">
<path d="M4.51265 13H15.2168L11.9406 17.36C11.8647 17.4611 11.8076 17.5778 11.7724 17.7034C11.7373 17.829 11.7248 17.961 11.7357 18.0919C11.7577 18.3564 11.8736 18.6003 12.0579 18.77C12.2422 18.9397 12.4798 19.0214 12.7185 18.997C12.9572 18.9726 13.1773 18.8442 13.3305 18.64L17.8432 12.64C17.8736 12.5923 17.9007 12.5421 17.9244 12.49C17.9244 12.44 17.9696 12.41 17.9876 12.36C18.0285 12.2453 18.0499 12.1233 18.0508 12C18.0499 11.8767 18.0285 11.7547 17.9876 11.64C17.9876 11.59 17.9425 11.56 17.9244 11.51C17.9007 11.4579 17.8736 11.4077 17.8432 11.36L13.3305 5.36C13.2456 5.24712 13.1394 5.15634 13.0192 5.09412C12.8991 5.0319 12.7681 4.99976 12.6355 5C12.4247 4.99955 12.2203 5.08092 12.0579 5.23C11.9665 5.31395 11.891 5.41705 11.8356 5.5334C11.7802 5.64975 11.7461 5.77705 11.7352 5.90803C11.7243 6.03901 11.7368 6.17108 11.7721 6.29668C11.8073 6.42229 11.8646 6.53895 11.9406 6.64L15.2168 11H4.51265C4.27328 11 4.04372 11.1054 3.87446 11.2929C3.7052 11.4804 3.61011 11.7348 3.61011 12C3.61011 12.2652 3.7052 12.5196 3.87446 12.7071C4.04372 12.8946 4.27328 13 4.51265 13Z" fill="#F4F4F4"/>
</svg>
