<svg width="30" height="30" viewBox="0 0 30 30" fill="none" xmlns="http://www.w3.org/2000/svg">
<path d="M14.0625 6.56242C13.0125 6.56242 12.0319 6.8493 11.1937 7.34993C11.1034 6.38841 10.7956 5.46002 10.2937 4.63492C11.5093 4.02783 12.8535 3.72328 14.2121 3.74718C15.5706 3.77108 16.9033 4.12273 18.0968 4.7722C19.2902 5.42168 20.3092 6.34979 21.067 7.47759C21.8248 8.60538 22.2991 9.89952 22.4494 11.2499H24.8456C26.6569 11.2499 28.1269 12.7199 28.1269 14.5312V22.9687C28.1269 23.3997 28.0419 23.8266 27.8769 24.2248C27.7119 24.623 27.47 24.9848 27.1652 25.2895C26.8603 25.5942 26.4983 25.8359 26.1 26.0007C25.7017 26.1655 25.2748 26.2502 24.8438 26.2499H16.4062C15.536 26.2499 14.7014 25.9042 14.0861 25.2889C13.4707 24.6735 13.125 23.8389 13.125 22.9687V20.5743C12.475 20.5022 11.8357 20.3543 11.22 20.1337C11.2388 19.6912 11.25 19.2299 11.25 18.7499V18.5999C11.25 18.1499 11.25 17.6193 11.2312 17.0493C11.8156 17.3915 12.4573 17.6247 13.125 17.7374V14.5312C13.125 12.7199 14.595 11.2499 16.4062 11.2499H19.6106C19.389 9.93891 18.7102 8.74878 17.6945 7.89068C16.6789 7.03258 15.3921 6.562 14.0625 6.56242V6.56242ZM22.2919 14.0624C21.9376 15.612 21.1534 17.0303 20.0294 18.1543C18.9053 19.2783 17.4871 20.0625 15.9375 20.4168V22.9687C15.9375 23.2274 16.1475 23.4374 16.4062 23.4374H24.8438C24.9681 23.4374 25.0873 23.388 25.1752 23.3001C25.2631 23.2122 25.3125 23.093 25.3125 22.9687V14.5312C25.3125 14.4069 25.2631 14.2876 25.1752 14.1997C25.0873 14.1118 24.9681 14.0624 24.8438 14.0624H22.2919ZM19.3669 14.0624H16.4062C16.2819 14.0624 16.1627 14.1118 16.0748 14.1997C15.9869 14.2876 15.9375 14.4069 15.9375 14.5312V17.4937C16.7287 17.2132 17.4474 16.7595 18.041 16.1659C18.6346 15.5723 19.0882 14.8537 19.3687 14.0624H19.3669ZM6.71438 2.1093C6.87001 2.24543 6.97627 2.42919 7.01662 2.63198C7.05698 2.83477 7.02916 3.04521 6.9375 3.23055C6.92163 3.28541 6.91342 3.34219 6.91313 3.3993C6.91313 3.51742 6.94313 3.74242 7.22625 4.02367C7.36313 4.16055 7.46813 4.25805 7.5825 4.36493C7.67625 4.45118 7.77563 4.54117 7.90125 4.66492C8.145 4.89742 8.40188 5.17117 8.6325 5.5143C9.11063 6.23242 9.375 7.13055 9.375 8.43742C9.375 9.99742 8.8125 11.3306 7.9275 12.1724C8.475 12.7274 8.79375 13.453 8.99063 14.1787C9.375 15.5887 9.375 17.3324 9.375 18.6806V18.7499C9.375 22.6087 8.65312 24.8999 7.83562 26.263C7.52679 26.7998 7.1212 27.2747 6.63937 27.6637C6.44855 27.8125 6.24087 27.9384 6.02062 28.0387C6.02062 28.0387 5.7825 28.1249 5.625 28.1249C5.48983 28.1142 5.35675 28.0852 5.22938 28.0387C5.00913 27.9384 4.80145 27.8125 4.61063 27.6637C4.1288 27.2747 3.72321 26.7998 3.41437 26.263C2.59687 24.9018 1.875 22.6087 1.875 18.7499V18.6824C1.875 17.3324 1.875 15.5905 2.25938 14.1768C2.45625 13.453 2.775 12.7274 3.3225 12.1706C2.4375 11.3324 1.875 9.99742 1.875 8.43742C1.875 7.82617 2.03813 7.0968 2.26313 6.42368C2.48813 5.74868 2.80313 5.05118 3.16688 4.48867C3.6 3.75743 4.20937 3.1443 4.68187 2.7318C4.94092 2.50398 5.21126 2.28933 5.49187 2.08867L5.54813 2.05117L5.565 2.03805L5.57062 2.0343L5.57438 2.03242C5.74631 1.91782 5.95128 1.86322 6.15744 1.87713C6.3636 1.89103 6.55939 1.97265 6.71438 2.1093V2.1093Z" fill="#4F4F4F"/>
</svg>
