<svg width="30" height="30" viewBox="0 0 30 30" fill="none" xmlns="http://www.w3.org/2000/svg">
<g clip-path="url(#clip0_66_397)">
<path d="M17.7296 22.4999H15.0002L9.37523 19.3999L2.50586 21.9262L4.38211 25.6412L8.80211 23.7955C12.9377 26.2649 15.4546 27.4999 16.3534 27.4999C17.2521 27.4999 20.9677 25.833 27.5002 22.4999" stroke="#4F4F4F" stroke-width="4" stroke-linecap="round" stroke-linejoin="round"/>
<path d="M18.12 16.8675V13.9487C18.8075 13.6631 19.7094 13.2456 20.2275 12.7275C21.0142 11.9408 21.5499 10.9385 21.7669 9.84736C21.984 8.75622 21.8726 7.62522 21.4468 6.59739C21.0211 5.56956 20.3001 4.69106 19.3751 4.07298C18.4501 3.4549 17.3625 3.125 16.25 3.125C15.1375 3.125 14.05 3.4549 13.1249 4.07298C12.1999 4.69106 11.4789 5.56956 11.0532 6.59739C10.6274 7.62522 10.516 8.75622 10.7331 9.84736C10.9501 10.9385 11.4858 11.9408 12.2725 12.7275C12.7906 13.2456 13.6875 13.6631 14.375 13.9481C14.3788 14.1575 14.3788 15.1306 14.375 16.8668H18.12V16.8675Z" stroke="#4F4F4F" stroke-width="4" stroke-linejoin="round"/>
<path d="M7.5 13.125L8.125 12.5M25 13.125L24.375 12.5M9.375 3.125L8.75 2.5M23.125 3.125L23.75 2.5M25.625 7.5H25M7.5 7.5H6.875" stroke="#4F4F4F" stroke-width="4" stroke-linecap="round"/>
</g>
<defs>
<clipPath id="clip0_66_397">
<rect width="30" height="30" fill="white"/>
</clipPath>
</defs>
</svg>
