<svg width="30" height="31" viewBox="0 0 30 31" fill="none" xmlns="http://www.w3.org/2000/svg">
<path d="M13.75 21.1248C13.75 20.6457 13.5887 20.1715 13.2662 19.7023C12.9429 19.234 12.5833 18.7448 12.1875 18.2348C11.7917 17.724 11.4321 17.1923 11.1088 16.6398C10.7863 16.0882 10.625 15.4998 10.625 14.8748C10.625 13.6665 11.0521 12.6353 11.9062 11.7811C12.7604 10.9269 13.7917 10.4998 15 10.4998C16.2083 10.4998 17.2396 10.9269 18.0938 11.7811C18.9479 12.6353 19.375 13.6665 19.375 14.8748C19.375 15.4998 19.2137 16.0882 18.8913 16.6398C18.5679 17.1923 18.2083 17.724 17.8125 18.2348C17.4167 18.7448 17.0571 19.234 16.7338 19.7023C16.4113 20.1715 16.25 20.6457 16.25 21.1248H13.75ZM15 24.2498C14.6458 24.2498 14.3492 24.1298 14.11 23.8898C13.87 23.6507 13.75 23.354 13.75 22.9998V22.3748H16.25V22.9998C16.25 23.354 16.1304 23.6507 15.8913 23.8898C15.6513 24.1298 15.3542 24.2498 15 24.2498ZM23.125 23.6248C22.9583 23.4582 22.87 23.2498 22.86 22.9998C22.8492 22.7498 22.9271 22.5311 23.0938 22.3436C23.8854 21.4061 24.505 20.3594 24.9525 19.2036C25.4008 18.0469 25.625 16.8123 25.625 15.4998C25.625 14.1873 25.4008 12.9528 24.9525 11.7961C24.505 10.6403 23.8854 9.5936 23.0938 8.6561C22.9271 8.4686 22.8492 8.24985 22.86 7.99985C22.87 7.74985 22.9583 7.54151 23.125 7.37485C23.3333 7.16651 23.5779 7.06735 23.8587 7.07735C24.1404 7.08818 24.3646 7.19776 24.5312 7.4061C25.4688 8.51026 26.1979 9.74985 26.7188 11.1248C27.2396 12.4998 27.5 13.9582 27.5 15.4998C27.5 17.0415 27.2396 18.4998 26.7188 19.8748C26.1979 21.2498 25.4688 22.4894 24.5312 23.5936C24.3646 23.8019 24.1404 23.9115 23.8587 23.9223C23.5779 23.9323 23.3333 23.8332 23.125 23.6248ZM5.46875 23.5936C4.53125 22.4894 3.80208 21.2498 3.28125 19.8748C2.76042 18.4998 2.5 17.0415 2.5 15.4998C2.5 13.9582 2.76042 12.4998 3.28125 11.1248C3.80208 9.74985 4.53125 8.51026 5.46875 7.4061C5.63542 7.19776 5.85917 7.08818 6.14 7.07735C6.42167 7.06735 6.66667 7.16651 6.875 7.37485C7.04167 7.54151 7.13042 7.74985 7.14125 7.99985C7.15125 8.24985 7.07292 8.4686 6.90625 8.6561C6.11458 9.5936 5.49458 10.6403 5.04625 11.7961C4.59875 12.9528 4.375 14.1873 4.375 15.4998C4.375 16.8123 4.59875 18.0469 5.04625 19.2036C5.49458 20.3594 6.11458 21.4061 6.90625 22.3436C7.07292 22.5311 7.15125 22.7498 7.14125 22.9998C7.13042 23.2498 7.04167 23.4582 6.875 23.6248C6.66667 23.8332 6.42167 23.9323 6.14 23.9223C5.85917 23.9115 5.63542 23.8019 5.46875 23.5936ZM20.5 20.9998C20.3333 20.8332 20.2396 20.6298 20.2188 20.3898C20.1979 20.1507 20.2708 19.9373 20.4375 19.7498C20.8958 19.1665 21.25 18.5103 21.5 17.7811C21.75 17.0519 21.875 16.2915 21.875 15.4998C21.875 14.7082 21.75 13.9478 21.5 13.2186C21.25 12.4894 20.8958 11.8332 20.4375 11.2498C20.2708 11.0623 20.1979 10.849 20.2188 10.6098C20.2396 10.3698 20.3333 10.1665 20.5 9.99985C20.7083 9.79151 20.9429 9.69235 21.2037 9.70235C21.4637 9.71318 21.6771 9.82276 21.8438 10.0311C22.4479 10.7811 22.9167 11.6194 23.25 12.5461C23.5833 13.4736 23.75 14.4582 23.75 15.4998C23.75 16.5415 23.5833 17.5261 23.25 18.4536C22.9167 19.3803 22.4479 20.2186 21.8438 20.9686C21.6771 21.1769 21.4637 21.2861 21.2037 21.2961C20.9429 21.3069 20.7083 21.2082 20.5 20.9998ZM8.15625 20.9686C7.55208 20.2186 7.08333 19.3803 6.75 18.4536C6.41667 17.5261 6.25 16.5415 6.25 15.4998C6.25 14.4582 6.41667 13.4736 6.75 12.5461C7.08333 11.6194 7.55208 10.7811 8.15625 10.0311C8.32292 9.82276 8.54167 9.7186 8.8125 9.7186C9.08333 9.7186 9.32292 9.82276 9.53125 10.0311C9.69792 10.1978 9.78667 10.3957 9.7975 10.6248C9.8075 10.854 9.72917 11.0623 9.5625 11.2498C9.10417 11.8332 8.75 12.4894 8.5 13.2186C8.25 13.9478 8.125 14.7082 8.125 15.4998C8.125 16.2915 8.25 17.0519 8.5 17.7811C8.75 18.5103 9.10417 19.1665 9.5625 19.7498C9.72917 19.9373 9.80208 20.1507 9.78125 20.3898C9.76042 20.6298 9.66667 20.8332 9.5 20.9998C9.29167 21.2082 9.0575 21.3069 8.7975 21.2961C8.53667 21.2861 8.32292 21.1769 8.15625 20.9686Z" fill="#F4F4F4"/>
</svg>
