<svg width="30" height="30" viewBox="0 0 30 30" fill="none" xmlns="http://www.w3.org/2000/svg">
<path d="M13.75 20.6248C13.75 20.1457 13.5887 19.6715 13.2662 19.2023C12.9429 18.734 12.5833 18.2448 12.1875 17.7348C11.7917 17.224 11.4321 16.6923 11.1088 16.1398C10.7863 15.5882 10.625 14.9998 10.625 14.3748C10.625 13.1665 11.0521 12.1353 11.9062 11.2811C12.7604 10.4269 13.7917 9.99985 15 9.99985C16.2083 9.99985 17.2396 10.4269 18.0938 11.2811C18.9479 12.1353 19.375 13.1665 19.375 14.3748C19.375 14.9998 19.2137 15.5882 18.8912 16.1398C18.5679 16.6923 18.2083 17.224 17.8125 17.7348C17.4167 18.2448 17.0571 18.734 16.7338 19.2023C16.4113 19.6715 16.25 20.1457 16.25 20.6248H13.75ZM15 23.7498C14.6458 23.7498 14.3492 23.6298 14.11 23.3898C13.87 23.1507 13.75 22.854 13.75 22.4998V21.8748H16.25V22.4998C16.25 22.854 16.1304 23.1507 15.8913 23.3898C15.6513 23.6298 15.3542 23.7498 15 23.7498ZM23.125 23.1248C22.9583 22.9582 22.87 22.7498 22.86 22.4998C22.8492 22.2498 22.9271 22.0311 23.0938 21.8436C23.8854 20.9061 24.505 19.8594 24.9525 18.7036C25.4008 17.5469 25.625 16.3123 25.625 14.9998C25.625 13.6873 25.4008 12.4528 24.9525 11.2961C24.505 10.1403 23.8854 9.0936 23.0938 8.1561C22.9271 7.9686 22.8492 7.74985 22.86 7.49985C22.87 7.24985 22.9583 7.04151 23.125 6.87485C23.3333 6.66651 23.5779 6.56735 23.8587 6.57735C24.1404 6.58818 24.3646 6.69776 24.5312 6.9061C25.4688 8.01026 26.1979 9.24985 26.7188 10.6248C27.2396 11.9998 27.5 13.4582 27.5 14.9998C27.5 16.5415 27.2396 17.9998 26.7188 19.3748C26.1979 20.7498 25.4688 21.9894 24.5312 23.0936C24.3646 23.3019 24.1404 23.4115 23.8587 23.4223C23.5779 23.4323 23.3333 23.3332 23.125 23.1248V23.1248ZM5.46875 23.0936C4.53125 21.9894 3.80208 20.7498 3.28125 19.3748C2.76042 17.9998 2.5 16.5415 2.5 14.9998C2.5 13.4582 2.76042 11.9998 3.28125 10.6248C3.80208 9.24985 4.53125 8.01026 5.46875 6.9061C5.63542 6.69776 5.85917 6.58818 6.14 6.57735C6.42167 6.56735 6.66667 6.66651 6.875 6.87485C7.04167 7.04151 7.13042 7.24985 7.14125 7.49985C7.15125 7.74985 7.07292 7.9686 6.90625 8.1561C6.11458 9.0936 5.49458 10.1403 5.04625 11.2961C4.59875 12.4528 4.375 13.6873 4.375 14.9998C4.375 16.3123 4.59875 17.5469 5.04625 18.7036C5.49458 19.8594 6.11458 20.9061 6.90625 21.8436C7.07292 22.0311 7.15125 22.2498 7.14125 22.4998C7.13042 22.7498 7.04167 22.9582 6.875 23.1248C6.66667 23.3332 6.42167 23.4323 6.14 23.4223C5.85917 23.4115 5.63542 23.3019 5.46875 23.0936V23.0936ZM20.5 20.4998C20.3333 20.3332 20.2396 20.1298 20.2187 19.8898C20.1979 19.6507 20.2708 19.4373 20.4375 19.2498C20.8958 18.6665 21.25 18.0103 21.5 17.2811C21.75 16.5519 21.875 15.7915 21.875 14.9998C21.875 14.2082 21.75 13.4478 21.5 12.7186C21.25 11.9894 20.8958 11.3332 20.4375 10.7498C20.2708 10.5623 20.1979 10.349 20.2187 10.1098C20.2396 9.86985 20.3333 9.66651 20.5 9.49985C20.7083 9.29151 20.9429 9.19235 21.2037 9.20235C21.4637 9.21318 21.6771 9.32276 21.8438 9.5311C22.4479 10.2811 22.9167 11.1194 23.25 12.0461C23.5833 12.9736 23.75 13.9582 23.75 14.9998C23.75 16.0415 23.5833 17.0261 23.25 17.9536C22.9167 18.8803 22.4479 19.7186 21.8438 20.4686C21.6771 20.6769 21.4637 20.7861 21.2037 20.7961C20.9429 20.8069 20.7083 20.7082 20.5 20.4998V20.4998ZM8.15625 20.4686C7.55208 19.7186 7.08333 18.8803 6.75 17.9536C6.41667 17.0261 6.25 16.0415 6.25 14.9998C6.25 13.9582 6.41667 12.9736 6.75 12.0461C7.08333 11.1194 7.55208 10.2811 8.15625 9.5311C8.32292 9.32276 8.54167 9.2186 8.8125 9.2186C9.08333 9.2186 9.32292 9.32276 9.53125 9.5311C9.69792 9.69776 9.78667 9.89568 9.7975 10.1248C9.8075 10.354 9.72917 10.5623 9.5625 10.7498C9.10417 11.3332 8.75 11.9894 8.5 12.7186C8.25 13.4478 8.125 14.2082 8.125 14.9998C8.125 15.7915 8.25 16.5519 8.5 17.2811C8.75 18.0103 9.10417 18.6665 9.5625 19.2498C9.72917 19.4373 9.80208 19.6507 9.78125 19.8898C9.76042 20.1298 9.66667 20.3332 9.5 20.4998C9.29167 20.7082 9.0575 20.8069 8.7975 20.7961C8.53667 20.7861 8.32292 20.6769 8.15625 20.4686V20.4686Z" fill="#4F4F4F"/>
</svg>
