<svg width="25" height="24" viewBox="0 0 25 24" fill="none" xmlns="http://www.w3.org/2000/svg">
<path d="M3.5 21V16H5.5V19H8.5V21H3.5ZM16.5 21V19H19.5V16H21.5V21H16.5ZM12.5 19C10.5667 19 8.91667 18.3167 7.55 16.95C6.18333 15.5833 5.5 13.9333 5.5 12C5.5 10.0667 6.18333 8.41667 7.55 7.05C8.91667 5.68333 10.5667 5 12.5 5C14.4333 5 16.0833 5.68333 17.45 7.05C18.8167 8.41667 19.5 10.0667 19.5 12C19.5 13.9333 18.8167 15.5833 17.45 16.95C16.0833 18.3167 14.4333 19 12.5 19ZM12.5 17C13.8833 17 15.0627 16.5123 16.038 15.537C17.0127 14.5623 17.5 13.3833 17.5 12C17.5 10.6167 17.0127 9.43733 16.038 8.462C15.0627 7.48733 13.8833 7 12.5 7C11.1167 7 9.93767 7.48733 8.963 8.462C7.98767 9.43733 7.5 10.6167 7.5 12C7.5 13.3833 7.98767 14.5623 8.963 15.537C9.93767 16.5123 11.1167 17 12.5 17ZM3.5 8V3H8.5V5H5.5V8H3.5ZM19.5 8V5H16.5V3H21.5V8H19.5Z" fill="#545454"/>
</svg>
