<svg width="31" height="31" viewBox="0 0 31 31" fill="none" xmlns="http://www.w3.org/2000/svg">
<path d="M4.25006 28V25.5H14.2501V28H4.25006ZM21.7501 26.75C21.0626 26.75 20.4742 26.5054 19.9851 26.0163C19.4951 25.5263 19.2501 24.9375 19.2501 24.25H15.5001C15.1459 24.25 14.8492 24.1354 14.6101 23.9063C14.3701 23.6771 14.2501 23.3854 14.2501 23.0312C14.2084 21.1562 14.7917 19.5262 16.0001 18.1412C17.2084 16.7554 18.7084 15.9167 20.5001 15.625V3H23.0001V15.625C24.8126 15.9167 26.318 16.7554 27.5163 18.1412C28.7138 19.5262 29.2917 21.1562 29.2501 23.0312C29.2501 23.3854 29.1301 23.6771 28.8901 23.9063C28.6509 24.1354 28.3542 24.25 28.0001 24.25H24.2501C24.2501 24.9375 24.0105 25.5263 23.5313 26.0163C23.0521 26.5054 22.4584 26.75 21.7501 26.75ZM8.00006 24.25V14.25H3.00006C2.58339 14.25 2.25006 14.0887 2.00006 13.7662C1.75006 13.4429 1.67714 13.0833 1.78131 12.6875L4.12506 3.9375C4.20839 3.66667 4.35964 3.4425 4.57881 3.265C4.79714 3.08833 5.05214 3 5.34381 3H13.1563C13.448 3 13.7034 3.08833 13.9226 3.265C14.1409 3.4425 14.2917 3.66667 14.3751 3.9375L16.7188 12.6875C16.823 13.0833 16.7501 13.4429 16.5001 13.7662C16.2501 14.0887 15.9167 14.25 15.5001 14.25H10.5001V24.25H8.00006ZM16.8751 21.75H26.6251C26.3751 20.625 25.7917 19.7187 24.8751 19.0312C23.9584 18.3437 22.9167 18 21.7501 18C20.6042 18 19.573 18.3437 18.6563 19.0312C17.7396 19.7187 17.1459 20.625 16.8751 21.75ZM4.62506 11.75H13.8751L12.2188 5.5H6.31256L4.62506 11.75Z" fill="#4F4F4F"/>
</svg>
