<svg width="31" height="31" viewBox="0 0 31 31" fill="none" xmlns="http://www.w3.org/2000/svg">
<path d="M18.625 23C17.75 23 17.0104 22.6979 16.4063 22.0937C15.8021 21.4896 15.5 20.75 15.5 19.875C15.5 19 15.8021 18.2604 16.4063 17.6563C17.0104 17.0521 17.75 16.75 18.625 16.75C19.5 16.75 20.2396 17.0521 20.8437 17.6563C21.4479 18.2604 21.75 19 21.75 19.875C21.75 20.75 21.4479 21.4896 20.8437 22.0937C20.2396 22.6979 19.5 23 18.625 23ZM6.75 28C6.0625 28 5.47375 27.7554 4.98375 27.2663C4.49458 26.7763 4.25 26.1875 4.25 25.5V8C4.25 7.3125 4.49458 6.72417 4.98375 6.235C5.47375 5.745 6.0625 5.5 6.75 5.5H8V3H10.5V5.5H20.5V3H23V5.5H24.25C24.9375 5.5 25.5263 5.745 26.0163 6.235C26.5054 6.72417 26.75 7.3125 26.75 8V25.5C26.75 26.1875 26.5054 26.7763 26.0163 27.2663C25.5263 27.7554 24.9375 28 24.25 28H6.75ZM6.75 25.5H24.25V13H6.75V25.5Z" fill="#4F4F4F"/>
</svg>
