<svg width="30" height="30" viewBox="0 0 30 30" fill="none" xmlns="http://www.w3.org/2000/svg">
<path d="M6.25 18.75C5.89583 18.75 5.59875 18.63 5.35875 18.39C5.11958 18.1508 5 17.8542 5 17.5V12.5C5 12.1458 5.11958 11.8487 5.35875 11.6087C5.59875 11.3696 5.89583 11.25 6.25 11.25C6.60417 11.25 6.90125 11.3696 7.14125 11.6087C7.38042 11.8487 7.5 12.1458 7.5 12.5V16.25H22.5V12.5C22.5 12.1458 22.62 11.8487 22.86 11.6087C23.0992 11.3696 23.3958 11.25 23.75 11.25C24.1042 11.25 24.4008 11.3696 24.64 11.6087C24.88 11.8487 25 12.1458 25 12.5V17.5C25 17.8542 24.88 18.1508 24.64 18.39C24.4008 18.63 24.1042 18.75 23.75 18.75H6.25Z" fill="#545454"/>
</svg>
