<svg width="30" height="31" viewBox="0 0 30 31" fill="none" xmlns="http://www.w3.org/2000/svg">
<path d="M22.5002 18.625C23.8752 18.625 25.1252 19.125 26.0002 20.125L27.5002 18.625V23.625H22.5002L24.7502 21.375C24.1252 20.875 23.3752 20.5 22.5002 20.5C20.7502 20.5 19.3752 21.875 19.3752 23.625C19.3752 25.375 20.7502 26.75 22.5002 26.75C23.5002 26.75 24.3752 26.25 25.0002 25.5H27.1252C26.3752 27.375 24.6252 28.625 22.5002 28.625C19.7502 28.625 17.5002 26.375 17.5002 23.625C17.5002 20.875 19.7502 18.625 22.5002 18.625ZM14.6252 25.5H14.1252L13.6252 22.25C12.1252 22 10.8752 21.125 9.87521 20L6.87521 21.25L5.87521 19.625L8.50021 17.625C8.00021 16.125 8.00021 14.625 8.50021 13.125L5.87521 11.375L6.87521 9.75L9.87521 11C10.8752 9.875 12.1252 9.125 13.6252 8.75L14.0002 5.5H15.8752L16.3752 8.75C17.8752 9 19.2502 9.875 20.1252 11L23.1252 9.75L24.1252 11.375L21.5002 13.25C21.7502 14 21.8752 14.75 21.8752 15.5H22.5002C23.1252 15.5 23.7502 15.625 24.3752 15.75V15.5L24.2502 14.25L26.8752 12.25C27.1252 12 27.1252 11.75 27.0002 11.5L24.5002 7.125C24.3752 6.75 24.1252 6.75 23.7502 6.75L20.6252 8C20.0002 7.5 19.2502 7.125 18.5002 6.75L18.0002 3.375C18.1252 3.25 17.7502 3 17.5002 3H12.5002C12.2502 3 11.8752 3.25 11.8752 3.5L11.3752 6.875C10.6252 7.125 10.0002 7.625 9.25021 8L6.25021 6.75C5.87521 6.75 5.62521 6.75 5.37521 7.125L2.87521 11.5C2.75021 11.75 2.87521 12 3.12521 12.25L5.75021 14.25L5.62521 15.5L5.75021 16.75L3.12521 18.875C2.87521 19.125 2.87521 19.375 3.00021 19.625L5.50021 24C5.62521 24.25 5.87521 24.25 6.25021 24.25L9.37521 23C10.0002 23.5 10.7502 23.875 11.5002 24.25L12.0002 27.625C12.0002 27.875 12.2502 28.125 12.6252 28.125H15.7502C15.1252 27.25 14.8752 26.375 14.6252 25.5M20.0002 15.875V15.5C20.0002 12.75 17.7502 10.5 15.0002 10.5C12.2502 10.5 10.0002 12.75 10.0002 15.5C10.0002 18.25 12.2502 20.5 15.0002 20.5C15.8752 18.375 17.7502 16.625 20.0002 15.875M12.5002 15.5C12.5002 14.125 13.6252 13 15.0002 13C16.3752 13 17.5002 14.125 17.5002 15.5C17.5002 16.875 16.3752 18 15.0002 18C13.6252 18 12.5002 16.875 12.5002 15.5Z" fill="#4F4F4F"/>
</svg>
