<svg width="30" height="30" viewBox="0 0 30 30" fill="none" xmlns="http://www.w3.org/2000/svg">
<path d="M28.9923 8.07422C28.9205 7.90359 28.7999 7.75802 28.6456 7.65583C28.4913 7.55364 28.3102 7.49942 28.1251 7.5H24.5626C24.1351 6.75413 23.5416 6.11667 22.8281 5.63699C22.1147 5.1573 21.3004 4.84828 20.4484 4.73384C19.5963 4.6194 18.7293 4.70262 17.9146 4.97705C17.0999 5.25149 16.3592 5.70977 15.7501 6.31641C15.2167 6.83645 14.7927 7.45785 14.5029 8.14409C14.2131 8.83034 14.0634 9.56758 14.0626 10.3125V11.0273C9.29304 9.78516 5.39069 5.94141 5.35554 5.89453C5.23296 5.77393 5.07956 5.68937 4.91215 5.6501C4.74473 5.61083 4.56974 5.61837 4.40632 5.67188C4.24341 5.72372 4.09754 5.81859 3.98409 5.94648C3.87064 6.07437 3.79384 6.23052 3.76179 6.39844C2.74226 12.0469 4.44147 15.832 6.04694 18.0117C6.8522 19.1139 7.82953 20.0794 8.94147 20.8711C7.14851 22.8984 4.38288 23.9531 4.35944 23.9648C4.22719 24.0139 4.10771 24.0922 4.00991 24.1938C3.9121 24.2954 3.83849 24.4178 3.79456 24.5519C3.75063 24.6859 3.73752 24.8281 3.75619 24.968C3.77486 25.1078 3.82484 25.2416 3.90241 25.3594C3.99616 25.5 4.34772 25.957 5.20319 26.3906C6.2696 26.918 7.67585 27.1875 9.37507 27.1875C17.6368 27.1875 24.5508 20.8242 25.254 12.6328L28.793 9.10547C28.9202 8.96992 29.0064 8.80113 29.0417 8.61864C29.0769 8.43614 29.0598 8.24739 28.9923 8.07422ZM23.6837 11.5547C23.5203 11.7167 23.4241 11.9343 23.4141 12.1641C22.9337 19.5352 16.7696 25.3125 9.37507 25.3125C8.13288 25.3125 7.26569 25.1484 6.65632 24.9492C8.00397 24.2227 9.87897 22.957 11.0977 21.1406C11.1685 21.0307 11.2154 20.9072 11.2356 20.778C11.2558 20.6489 11.2487 20.5169 11.2149 20.3906C11.1808 20.2631 11.1204 20.144 11.0377 20.0411C10.955 19.9382 10.8517 19.8537 10.7344 19.793C10.7227 19.7813 8.98835 18.8789 7.50007 16.8281C5.81257 14.5078 5.09772 11.6836 5.37897 8.42578C7.23054 9.94922 10.7696 12.4336 14.8477 13.1133C14.9824 13.1349 15.1201 13.1273 15.2516 13.0909C15.383 13.0545 15.5051 12.9902 15.6094 12.9023C15.7115 12.8131 15.7934 12.7032 15.85 12.58C15.9065 12.4568 15.9364 12.3231 15.9376 12.1875V10.3125C15.9393 9.45234 16.2367 8.61893 16.7799 7.95198C17.3231 7.28504 18.0791 6.8251 18.9211 6.64928C19.7631 6.47347 20.6399 6.59245 21.4046 6.9863C22.1693 7.38015 22.7754 8.02492 23.1212 8.8125C23.1959 8.98003 23.3176 9.12231 23.4715 9.22214C23.6254 9.32197 23.8049 9.37506 23.9883 9.375H25.8633L23.6837 11.5547Z" fill="#F4F4F4"/>
</svg>
