<svg width="30" height="30" viewBox="0 0 30 30" fill="none" xmlns="http://www.w3.org/2000/svg">
<path d="M28.9923 8.07419C28.9205 7.90356 28.7999 7.75799 28.6456 7.6558C28.4913 7.55361 28.3102 7.49939 28.1251 7.49997H24.5626C24.1351 6.7541 23.5416 6.11664 22.8281 5.63695C22.1147 5.15727 21.3004 4.84825 20.4484 4.73381C19.5963 4.61937 18.7293 4.70259 17.9146 4.97702C17.0999 5.25146 16.3592 5.70974 15.7501 6.31638C15.2167 6.83642 14.7927 7.45782 14.5029 8.14406C14.2131 8.83031 14.0634 9.56755 14.0626 10.3125V11.0273C9.29304 9.78513 5.39069 5.94138 5.35554 5.8945C5.23296 5.7739 5.07956 5.68934 4.91215 5.65007C4.74473 5.6108 4.56974 5.61834 4.40632 5.67185C4.24341 5.72369 4.09754 5.81856 3.98409 5.94645C3.87064 6.07434 3.79384 6.23049 3.76179 6.39841C2.74226 12.0468 4.44147 15.832 6.04694 18.0117C6.8522 19.1139 7.82953 20.0793 8.94147 20.8711C7.14851 22.8984 4.38288 23.9531 4.35944 23.9648C4.22719 24.0139 4.10771 24.0921 4.00991 24.1938C3.9121 24.2954 3.83849 24.4178 3.79456 24.5518C3.75063 24.6859 3.73752 24.8281 3.75619 24.9679C3.77486 25.1077 3.82484 25.2415 3.90241 25.3593C3.99616 25.5 4.34772 25.957 5.20319 26.3906C6.2696 26.9179 7.67585 27.1875 9.37507 27.1875C17.6368 27.1875 24.5508 20.8242 25.254 12.6328L28.793 9.10544C28.9202 8.96989 29.0064 8.8011 29.0417 8.61861C29.0769 8.43611 29.0598 8.24736 28.9923 8.07419ZM23.6837 11.5547C23.5203 11.7166 23.4241 11.9342 23.4141 12.164C22.9337 19.5351 16.7696 25.3125 9.37507 25.3125C8.13288 25.3125 7.26569 25.1484 6.65632 24.9492C8.00397 24.2226 9.87897 22.957 11.0977 21.1406C11.1685 21.0307 11.2154 20.9072 11.2356 20.778C11.2558 20.6488 11.2487 20.5169 11.2149 20.3906C11.1808 20.263 11.1204 20.144 11.0377 20.0411C10.955 19.9382 10.8517 19.8537 10.7344 19.7929C10.7227 19.7812 8.98835 18.8789 7.50007 16.8281C5.81257 14.5078 5.09772 11.6836 5.37897 8.42575C7.23054 9.94919 10.7696 12.4336 14.8477 13.1133C14.9824 13.1349 15.1201 13.1272 15.2516 13.0908C15.383 13.0544 15.5051 12.9901 15.6094 12.9023C15.7115 12.813 15.7934 12.7032 15.85 12.58C15.9065 12.4568 15.9364 12.323 15.9376 12.1875V10.3125C15.9393 9.45231 16.2367 8.6189 16.7799 7.95195C17.3231 7.28501 18.0791 6.82507 18.9211 6.64925C19.7631 6.47343 20.6399 6.59242 21.4046 6.98627C22.1693 7.38012 22.7754 8.02489 23.1212 8.81247C23.1959 8.98 23.3176 9.12228 23.4715 9.22211C23.6254 9.32194 23.8049 9.37503 23.9883 9.37497H25.8633L23.6837 11.5547Z" fill="#F4F4F4"/>
</svg>
