<svg width="30" height="30" viewBox="0 0 30 30" fill="none" xmlns="http://www.w3.org/2000/svg">
<path d="M28.9923 8.07431C28.9205 7.90369 28.7999 7.75811 28.6456 7.65592C28.4913 7.55374 28.3102 7.49952 28.1251 7.50009H24.5626C24.1351 6.75422 23.5416 6.11676 22.8281 5.63708C22.1147 5.1574 21.3004 4.84837 20.4484 4.73393C19.5963 4.61949 18.7293 4.70271 17.9146 4.97715C17.0999 5.25158 16.3592 5.70986 15.7501 6.3165C15.2167 6.83654 14.7927 7.45794 14.5029 8.14418C14.2131 8.83043 14.0634 9.56767 14.0626 10.3126V11.0274C9.29304 9.78525 5.39069 5.9415 5.35554 5.89462C5.23296 5.77403 5.07956 5.68947 4.91215 5.6502C4.74473 5.61093 4.56974 5.61846 4.40632 5.67197C4.24341 5.72381 4.09754 5.81869 3.98409 5.94657C3.87064 6.07446 3.79384 6.23061 3.76179 6.39853C2.74226 12.047 4.44147 15.8321 6.04694 18.0118C6.8522 19.114 7.82953 20.0795 8.94147 20.8712C7.14851 22.8985 4.38288 23.9532 4.35944 23.9649C4.22719 24.014 4.10771 24.0922 4.00991 24.1939C3.9121 24.2955 3.83849 24.4179 3.79456 24.552C3.75063 24.686 3.73752 24.8282 3.75619 24.968C3.77486 25.1079 3.82484 25.2417 3.90241 25.3595C3.99616 25.5001 4.34772 25.9571 5.20319 26.3907C6.2696 26.9181 7.67585 27.1876 9.37507 27.1876C17.6368 27.1876 24.5508 20.8243 25.254 12.6329L28.793 9.10556C28.9202 8.97001 29.0064 8.80123 29.0417 8.61873C29.0769 8.43623 29.0598 8.24748 28.9923 8.07431ZM23.6837 11.5548C23.5203 11.7168 23.4241 11.9344 23.4141 12.1642C22.9337 19.5353 16.7696 25.3126 9.37507 25.3126C8.13288 25.3126 7.26569 25.1485 6.65632 24.9493C8.00397 24.2227 9.87897 22.9571 11.0977 21.1407C11.1685 21.0308 11.2154 20.9073 11.2356 20.7781C11.2558 20.6489 11.2487 20.517 11.2149 20.3907C11.1808 20.2632 11.1204 20.1441 11.0377 20.0412C10.955 19.9383 10.8517 19.8538 10.7344 19.7931C10.7227 19.7813 8.98835 18.879 7.50007 16.8282C5.81257 14.5079 5.09772 11.6837 5.37897 8.42588C7.23054 9.94931 10.7696 12.4337 14.8477 13.1134C14.9824 13.135 15.1201 13.1274 15.2516 13.091C15.383 13.0546 15.5051 12.9903 15.6094 12.9024C15.7115 12.8132 15.7934 12.7033 15.85 12.5801C15.9065 12.4569 15.9364 12.3232 15.9376 12.1876V10.3126C15.9393 9.45244 16.2367 8.61902 16.7799 7.95207C17.3231 7.28513 18.0791 6.82519 18.9211 6.64937C19.7631 6.47356 20.6399 6.59255 21.4046 6.9864C22.1693 7.38024 22.7754 8.02501 23.1212 8.81259C23.1959 8.98012 23.3176 9.12241 23.4715 9.22223C23.6254 9.32206 23.8049 9.37515 23.9883 9.37509H25.8633L23.6837 11.5548Z" fill="#F4F4F4"/>
</svg>
