<svg width="30" height="30" viewBox="0 0 30 30" fill="none" xmlns="http://www.w3.org/2000/svg">
<path d="M28.9921 8.07419C28.9204 7.90356 28.7998 7.75799 28.6455 7.6558C28.4911 7.55361 28.31 7.49939 28.1249 7.49997H24.5624C24.1349 6.7541 23.5415 6.11664 22.828 5.63695C22.1146 5.15727 21.3003 4.84825 20.4482 4.73381C19.5962 4.61937 18.7292 4.70259 17.9145 4.97702C17.0997 5.25146 16.3591 5.70974 15.7499 6.31638C15.2166 6.83642 14.7926 7.45782 14.5028 8.14406C14.213 8.83031 14.0633 9.56755 14.0624 10.3125V11.0273C9.29291 9.78513 5.39057 5.94138 5.35541 5.8945C5.23283 5.7739 5.07944 5.68934 4.91203 5.65007C4.74461 5.6108 4.56962 5.61834 4.4062 5.67185C4.24329 5.72369 4.09741 5.81856 3.98397 5.94645C3.87052 6.07434 3.79371 6.23049 3.76166 6.39841C2.74213 12.0468 4.44135 15.832 6.04682 18.0117C6.85208 19.1139 7.82941 20.0793 8.94135 20.8711C7.14838 22.8984 4.38276 23.9531 4.35932 23.9648C4.22707 24.0139 4.10759 24.0921 4.00978 24.1938C3.91198 24.2954 3.83837 24.4178 3.79444 24.5518C3.75051 24.6859 3.73739 24.8281 3.75607 24.9679C3.77474 25.1077 3.82472 25.2415 3.90229 25.3593C3.99604 25.5 4.3476 25.957 5.20307 26.3906C6.26948 26.9179 7.67573 27.1875 9.37495 27.1875C17.6367 27.1875 24.5507 20.8242 25.2539 12.6328L28.7929 9.10544C28.9201 8.96989 29.0063 8.8011 29.0416 8.61861C29.0768 8.43611 29.0597 8.24736 28.9921 8.07419ZM23.6835 11.5547C23.5202 11.7166 23.424 11.9342 23.414 12.164C22.9335 19.5351 16.7695 25.3125 9.37495 25.3125C8.13276 25.3125 7.26557 25.1484 6.6562 24.9492C8.00385 24.2226 9.87885 22.957 11.0976 21.1406C11.1683 21.0307 11.2153 20.9072 11.2355 20.778C11.2557 20.6488 11.2486 20.5169 11.2148 20.3906C11.1807 20.263 11.1203 20.144 11.0376 20.0411C10.9549 19.9382 10.8516 19.8537 10.7343 19.7929C10.7226 19.7812 8.98823 18.8789 7.49995 16.8281C5.81245 14.5078 5.0976 11.6836 5.37885 8.42575C7.23042 9.94919 10.7695 12.4336 14.8476 13.1133C14.9823 13.1349 15.12 13.1272 15.2515 13.0908C15.3829 13.0544 15.505 12.9901 15.6093 12.9023C15.7113 12.813 15.7933 12.7032 15.8499 12.58C15.9064 12.4568 15.9363 12.323 15.9374 12.1875V10.3125C15.9392 9.45231 16.2366 8.6189 16.7798 7.95195C17.323 7.28501 18.0789 6.82507 18.9209 6.64925C19.7629 6.47343 20.6398 6.59242 21.4045 6.98627C22.1692 7.38012 22.7752 8.02489 23.121 8.81247C23.1958 8.98 23.3175 9.12228 23.4714 9.22211C23.6253 9.32194 23.8048 9.37503 23.9882 9.37497H25.8632L23.6835 11.5547Z" fill="#F4F4F4"/>
</svg>
