<svg width="30" height="30" viewBox="0 0 30 30" fill="none" xmlns="http://www.w3.org/2000/svg">
<path d="M28.9921 8.07431C28.9204 7.90369 28.7998 7.75811 28.6455 7.65592C28.4911 7.55374 28.31 7.49952 28.1249 7.50009H24.5624C24.1349 6.75422 23.5415 6.11676 22.828 5.63708C22.1146 5.1574 21.3003 4.84837 20.4482 4.73393C19.5962 4.61949 18.7292 4.70271 17.9145 4.97715C17.0997 5.25158 16.3591 5.70986 15.7499 6.3165C15.2166 6.83654 14.7926 7.45794 14.5028 8.14418C14.213 8.83043 14.0633 9.56767 14.0624 10.3126V11.0274C9.29291 9.78525 5.39057 5.9415 5.35541 5.89462C5.23283 5.77403 5.07944 5.68947 4.91203 5.6502C4.74461 5.61093 4.56962 5.61846 4.4062 5.67197C4.24329 5.72381 4.09741 5.81869 3.98397 5.94657C3.87052 6.07446 3.79371 6.23061 3.76166 6.39853C2.74213 12.047 4.44135 15.8321 6.04682 18.0118C6.85208 19.114 7.82941 20.0795 8.94135 20.8712C7.14838 22.8985 4.38276 23.9532 4.35932 23.9649C4.22707 24.014 4.10759 24.0922 4.00978 24.1939C3.91198 24.2955 3.83837 24.4179 3.79444 24.552C3.75051 24.686 3.73739 24.8282 3.75607 24.968C3.77474 25.1079 3.82472 25.2417 3.90229 25.3595C3.99604 25.5001 4.3476 25.9571 5.20307 26.3907C6.26948 26.9181 7.67573 27.1876 9.37495 27.1876C17.6367 27.1876 24.5507 20.8243 25.2539 12.6329L28.7929 9.10556C28.9201 8.97001 29.0063 8.80123 29.0416 8.61873C29.0768 8.43623 29.0597 8.24748 28.9921 8.07431ZM23.6835 11.5548C23.5202 11.7168 23.424 11.9344 23.414 12.1642C22.9335 19.5353 16.7695 25.3126 9.37495 25.3126C8.13276 25.3126 7.26557 25.1485 6.6562 24.9493C8.00385 24.2227 9.87885 22.9571 11.0976 21.1407C11.1683 21.0308 11.2153 20.9073 11.2355 20.7781C11.2557 20.6489 11.2486 20.517 11.2148 20.3907C11.1807 20.2632 11.1203 20.1441 11.0376 20.0412C10.9549 19.9383 10.8516 19.8538 10.7343 19.7931C10.7226 19.7813 8.98823 18.879 7.49995 16.8282C5.81245 14.5079 5.0976 11.6837 5.37885 8.42588C7.23042 9.94931 10.7695 12.4337 14.8476 13.1134C14.9823 13.135 15.12 13.1274 15.2515 13.091C15.3829 13.0546 15.505 12.9903 15.6093 12.9024C15.7113 12.8132 15.7933 12.7033 15.8499 12.5801C15.9064 12.4569 15.9363 12.3232 15.9374 12.1876V10.3126C15.9392 9.45244 16.2366 8.61902 16.7798 7.95207C17.323 7.28513 18.0789 6.82519 18.9209 6.64937C19.7629 6.47356 20.6398 6.59255 21.4045 6.9864C22.1692 7.38024 22.7752 8.02501 23.121 8.81259C23.1958 8.98012 23.3175 9.12241 23.4714 9.22223C23.6253 9.32206 23.8048 9.37515 23.9882 9.37509H25.8632L23.6835 11.5548Z" fill="#F4F4F4"/>
</svg>
