<svg width="20" height="20" viewBox="0 0 20 20" fill="none" xmlns="http://www.w3.org/2000/svg">
<g clip-path="url(#clip0_39_71)">
<path d="M14.5425 5.56667C14.9675 5.14501 14.9675 4.45834 14.5425 4.03584L12.9816 2.47501L12.9841 2.47667L10.8558 0.351674C10.6264 0.129278 10.3189 0.00581104 9.99943 0.00783705C9.67994 0.00986305 9.37402 0.13722 9.14748 0.362507L0.35581 9.15001C0.24336 9.26176 0.154119 9.39466 0.093223 9.54103C0.0323267 9.68741 0.000976563 9.84438 0.000976562 10.0029C0.000976563 10.1615 0.0323267 10.3184 0.093223 10.4648C0.154119 10.6112 0.24336 10.7441 0.35581 10.8558L9.14664 19.6392C9.37323 19.8656 9.68046 19.9928 10.0008 19.9928C10.3212 19.9928 10.6284 19.8656 10.855 19.6392L14.5408 15.9558C14.6416 15.8554 14.7217 15.7361 14.7763 15.6046C14.8308 15.4732 14.859 15.3323 14.859 15.19C14.859 15.0477 14.8308 14.9068 14.7763 14.7754C14.7217 14.6439 14.6416 14.5246 14.5408 14.4242C14.3371 14.2216 14.0614 14.108 13.7741 14.108C13.4869 14.108 13.2112 14.2216 13.0075 14.4242L10.2158 17.2192C10.189 17.2467 10.1569 17.2685 10.1215 17.2834C10.086 17.2983 10.048 17.306 10.0096 17.306C9.97113 17.306 9.93308 17.2983 9.89767 17.2834C9.86225 17.2685 9.83016 17.2467 9.80331 17.2192L2.78081 10.2033C2.75332 10.1765 2.73147 10.1444 2.71656 10.109C2.70165 10.0736 2.69396 10.0355 2.69396 9.99709C2.69396 9.95866 2.70165 9.92062 2.71656 9.8852C2.73147 9.84978 2.75332 9.8177 2.78081 9.79084L9.80081 2.77417C9.80914 2.76584 9.82081 2.75917 9.82998 2.75001C9.88533 2.70526 9.9555 2.68299 10.0265 2.68762C10.0976 2.69226 10.1642 2.72345 10.2133 2.77501L13.0083 5.56667C13.1089 5.66759 13.2285 5.74765 13.3601 5.80228C13.4918 5.85691 13.6329 5.88503 13.7754 5.88503C13.9179 5.88503 14.059 5.85691 14.1907 5.80228C14.3223 5.74765 14.4418 5.66759 14.5425 5.56667ZM7.67164 10.0467C7.67164 10.6758 7.92173 11.2791 8.3669 11.724C8.81206 12.1688 9.41583 12.4188 10.0454 12.4188C10.6749 12.4188 11.2787 12.1688 11.7239 11.724C12.1691 11.2791 12.4191 10.6758 12.4191 10.0467C12.4191 9.41756 12.1691 8.81421 11.7239 8.36936C11.2787 7.92451 10.6749 7.67459 10.0454 7.67459C9.41583 7.67459 8.81206 7.92451 8.3669 8.36936C7.92173 8.81421 7.67164 9.41756 7.67164 10.0467ZM19.645 9.18501L16.9 6.45251C16.6961 6.24964 16.42 6.13597 16.1324 6.13644C15.8447 6.13691 15.5691 6.25148 15.3658 6.45501C15.265 6.55543 15.185 6.67478 15.1304 6.8062C15.0758 6.93762 15.0477 7.07853 15.0477 7.22084C15.0477 7.36315 15.0758 7.50406 15.1304 7.63548C15.185 7.7669 15.265 7.88625 15.3658 7.98667L17.2191 9.83834C17.3358 9.95417 17.3358 10.135 17.2191 10.2508L15.3925 12.0758C15.2918 12.1762 15.2119 12.2955 15.1573 12.4269C15.1028 12.5582 15.0748 12.699 15.0748 12.8413C15.0748 12.9835 15.1028 13.1243 15.1573 13.2556C15.2119 13.387 15.2918 13.5063 15.3925 13.6067C15.5962 13.8092 15.8719 13.9229 16.1591 13.9229C16.4464 13.9229 16.7221 13.8092 16.9258 13.6067L19.6458 10.89C19.758 10.778 19.8469 10.645 19.9075 10.4986C19.9681 10.3522 19.9993 10.1952 19.9991 10.0367C19.999 9.87827 19.9675 9.72138 19.9066 9.57508C19.8457 9.42877 19.7565 9.29593 19.6441 9.18417L19.645 9.18501Z" fill="#48484A"/>
</g>
<defs>
<clipPath id="clip0_39_71">
<rect width="20" height="20" fill="white"/>
</clipPath>
</defs>
</svg>
