<svg width="625" height="468" viewBox="0 0 625 468" fill="none" xmlns="http://www.w3.org/2000/svg">
<path d="M624.695 411.577H0V411.89H624.695V411.577Z" fill="#303030"/>
<path d="M186.296 425.933H131.048V426.245H186.296V425.933Z" fill="#303030"/>
<path d="M121.89 426.083H100.401V426.395H121.89V426.083Z" fill="#303030"/>
<path d="M286.235 423.984H260.11V424.296H286.235V423.984Z" fill="#303030"/>
<path d="M350.066 420.611H281V420.923H350.066V420.611Z" fill="#303030"/>
<path d="M474.806 426.395H458.114V426.708H474.806V426.395Z" fill="#303030"/>
<path d="M451.179 426.395H445.732V426.708H451.179V426.395Z" fill="#303030"/>
<path d="M560.414 422.947H489.511V423.259H560.414V422.947Z" fill="#303030"/>
<path d="M296.105 355.855H54.8607C52.9708 355.851 51.1594 355.098 49.8242 353.761C48.489 352.423 47.7391 350.611 47.7391 348.721V9.59889C47.7556 7.71984 48.5127 5.92316 49.8462 4.5991C51.1796 3.27505 52.9815 2.53056 54.8607 2.52734H296.105C297.997 2.52734 299.812 3.27896 301.15 4.61685C302.488 5.95474 303.239 7.7693 303.239 9.66136V348.721C303.239 350.613 302.488 352.427 301.15 353.765C299.812 355.103 297.997 355.855 296.105 355.855ZM54.8607 2.77722C53.0536 2.78053 51.3217 3.5007 50.0451 4.77965C48.7685 6.0586 48.0515 7.79183 48.0515 9.59889V348.721C48.0515 350.528 48.7685 352.261 50.0451 353.54C51.3217 354.819 53.0536 355.539 54.8607 355.542H296.105C297.912 355.536 299.644 354.815 300.922 353.537C302.2 352.259 302.92 350.528 302.927 348.721V9.59889C302.92 7.7917 302.2 6.0604 300.922 4.78252C299.644 3.50463 297.912 2.78381 296.105 2.77722H54.8607Z" fill="#303030"/>
<path d="M566.361 355.855H325.104C323.214 355.848 321.403 355.094 320.067 353.758C318.73 352.421 317.976 350.611 317.97 348.721V9.59889C317.989 7.7187 318.749 5.92203 320.085 4.59832C321.42 3.27461 323.223 2.53053 325.104 2.52734H566.361C568.238 2.53385 570.037 3.27979 571.367 4.60349C572.698 5.92719 573.453 7.722 573.47 9.59889V348.721C573.472 349.656 573.289 350.582 572.933 351.447C572.576 352.312 572.053 353.098 571.393 353.76C570.733 354.422 569.949 354.948 569.085 355.308C568.222 355.667 567.296 355.853 566.361 355.855ZM325.104 2.77722C323.297 2.78381 321.565 3.50463 320.287 4.78252C319.009 6.0604 318.289 7.7917 318.282 9.59889V348.721C318.289 350.528 319.009 352.259 320.287 353.537C321.565 354.815 323.297 355.536 325.104 355.542H566.361C568.168 355.536 569.899 354.815 571.177 353.537C572.455 352.259 573.176 350.528 573.183 348.721V9.59889C573.176 7.7917 572.455 6.0604 571.177 4.78252C569.899 3.50463 568.168 2.78381 566.361 2.77722H325.104Z" fill="#303030"/>
<path d="M520.571 30.9634H365.746V273.295H520.571V30.9634Z" fill="#303030"/>
<path d="M527.38 30.9634H368.932V273.295H527.38V30.9634Z" fill="#EBEBEB"/>
<path d="M520.571 273.308H365.746V285.939H520.571V273.308Z" fill="#E6E6E6"/>
<path d="M538.699 273.308H380.252V285.939H538.699V273.308Z" fill="#F0F0F0"/>
<path d="M517.86 40.4839H378.453V263.787H517.86V40.4839Z" fill="#FAFAFA"/>
<path d="M428.491 263.787L459.65 40.4839H486.025L454.865 263.787H428.491Z" fill="white"/>
<path d="M384.812 246.158C384.632 246.155 384.46 246.081 384.334 245.952C384.208 245.824 384.137 245.651 384.137 245.471V46.6804C384.125 46.591 384.13 46.5001 384.153 46.4127C384.176 46.3254 384.216 46.2435 384.27 46.1715C384.325 46.0996 384.393 46.0391 384.471 45.9935C384.549 45.9479 384.635 45.9181 384.724 45.9058C384.814 45.8935 384.905 45.899 384.992 45.9218C385.08 45.9447 385.161 45.9845 385.233 46.039C385.305 46.0935 385.366 46.1617 385.411 46.2396C385.457 46.3175 385.487 46.4036 385.499 46.493C385.512 46.5549 385.512 46.6186 385.499 46.6804V245.471C385.499 245.653 385.427 245.828 385.298 245.957C385.169 246.086 384.994 246.158 384.812 246.158Z" fill="#E6E6E6"/>
<path d="M460.525 263.787L491.685 40.4839H501.967L470.807 263.787H460.525Z" fill="white"/>
<path d="M517.86 40.4839H516.648V263.787H517.86V40.4839Z" fill="#E6E6E6"/>
<path d="M529.616 47.7924H374.804L373.93 44.1816H528.742L529.616 47.7924Z" fill="#303030"/>
<path d="M529.616 50.4293H374.804L373.93 46.8311H528.742L529.616 50.4293Z" fill="#303030"/>
<path d="M529.616 53.6024H374.804L373.93 49.9917H528.742L529.616 53.6024Z" fill="#303030"/>
<path d="M529.616 57.1381H374.804L373.93 53.5273H528.742L529.616 57.1381Z" fill="#303030"/>
<path d="M529.616 61.3612H374.804L373.93 57.7505H528.742L529.616 61.3612Z" fill="#303030"/>
<path d="M529.616 66.121H374.804L373.93 62.5103H528.742L529.616 66.121Z" fill="#303030"/>
<path d="M115.319 242.41C115.319 246.158 117.955 248.832 114.169 248.832C110.384 248.832 101.675 246.196 101.675 242.41C101.675 240.588 102.399 238.84 103.688 237.551C104.977 236.263 106.725 235.539 108.547 235.539C110.369 235.539 112.117 236.263 113.406 237.551C114.695 238.84 115.419 240.588 115.419 242.41H115.319Z" fill="#303030"/>
<path d="M127.038 245.696C127.038 249.444 129.674 252.105 125.888 252.105C122.103 252.105 113.395 249.469 113.395 245.696C113.395 243.873 114.119 242.126 115.407 240.837C116.696 239.548 118.444 238.824 120.266 238.824C122.089 238.824 123.837 239.548 125.125 240.837C126.414 242.126 127.138 243.873 127.138 245.696H127.038Z" fill="#303030"/>
<path d="M138.27 243.659C138.27 247.408 140.906 250.069 137.121 250.069C133.335 250.069 124.627 247.433 124.627 243.659C124.627 241.837 125.351 240.089 126.639 238.801C127.928 237.512 129.676 236.788 131.498 236.788C133.321 236.788 135.069 237.512 136.357 238.801C137.646 240.089 138.37 241.837 138.37 243.659H138.27Z" fill="#303030"/>
<path d="M97.4524 244.572C97.4524 244.572 98.0146 257.928 119.479 257.928C140.944 257.928 141.506 244.572 141.506 244.572H97.4524Z" fill="#F0F0F0"/>
<path d="M350.191 257.94H340.459V411.577H350.191V257.94Z" fill="#303030"/>
<path d="M353.265 257.94H346.506V411.577H353.265V257.94Z" fill="#F0F0F0"/>
<path d="M355.364 257.94H153.275V269.897H355.364V257.94Z" fill="#F0F0F0"/>
<path d="M148.915 269.897H139.182V411.577H148.915V269.897Z" fill="#303030"/>
<path d="M151.988 269.897H145.229V411.577H151.988V269.897Z" fill="#F0F0F0"/>
<path d="M87.3198 269.897H77.5871V411.577H87.3198V269.897Z" fill="#303030"/>
<path d="M90.3933 269.897H83.6342V411.577H90.3933V269.897Z" fill="#F0F0F0"/>
<path d="M288.597 269.897H278.864V411.577H288.597V269.897Z" fill="#303030"/>
<path d="M291.67 269.897H284.911V411.577H291.67V269.897Z" fill="#F0F0F0"/>
<path d="M153.275 257.94H77.5871V269.897H153.275V257.94Z" fill="#303030"/>
<path d="M151.988 207.315H233.224L244.993 255.279H163.757L151.988 207.315Z" fill="#303030"/>
<path d="M163.758 255.279L164.095 257.94H245.33L245.005 255.279H163.758Z" fill="#303030"/>
<path d="M154.487 207.315H235.722L247.492 255.279H166.269L154.487 207.315Z" fill="#F0F0F0"/>
<path d="M167.98 253.092L157.286 209.501H234.011L244.705 253.092H167.98Z" fill="white"/>
<path d="M187.433 255.279L187.758 257.94H277.215L276.89 255.279H187.433Z" fill="#EBEBEB"/>
<path d="M344.369 238.387C344.135 238.4 343.901 238.425 343.67 238.462V236.888C343.67 236.364 343.462 235.862 343.091 235.492C342.721 235.122 342.219 234.914 341.696 234.914H326.278C325.755 234.914 325.252 235.122 324.882 235.492C324.512 235.862 324.304 236.364 324.304 236.888V257.928H343.67V254.392C343.902 254.425 344.135 254.446 344.369 254.454C345.134 254.454 345.891 254.304 346.597 254.011C347.304 253.718 347.946 253.29 348.486 252.749C349.027 252.208 349.456 251.567 349.748 250.86C350.041 250.154 350.191 249.397 350.191 248.632V244.222C350.191 242.676 349.578 241.194 348.487 240.1C347.395 239.007 345.915 238.39 344.369 238.387ZM347.693 248.632C347.693 249.514 347.342 250.359 346.719 250.982C346.096 251.605 345.251 251.955 344.369 251.955C344.134 251.956 343.899 251.931 343.67 251.881V240.961C343.899 240.911 344.134 240.885 344.369 240.886C345.252 240.889 346.097 241.242 346.72 241.867C347.343 242.493 347.693 243.339 347.693 244.222V248.632Z" fill="#E6E6E6"/>
<path d="M260.61 411.577H257.912L250.178 373.496L248.828 366.824L240.395 325.332H208.086L190.594 411.54H187.896L205.737 323.708C205.782 323.41 205.934 323.138 206.163 322.943C206.393 322.748 206.685 322.642 206.986 322.646H241.457C241.758 322.642 242.051 322.748 242.28 322.943C242.51 323.138 242.661 323.41 242.706 323.708L250.115 360.152L251.465 366.812L260.61 411.577Z" fill="#303030"/>
<path d="M312.497 411.577H309.849L292.357 325.37H259.96L251.527 366.887L250.178 373.596L242.444 411.677H239.745L248.828 366.924L250.178 360.29L257.574 323.845C257.635 323.555 257.791 323.293 258.017 323.1C258.243 322.908 258.527 322.796 258.824 322.783H293.294C293.596 322.78 293.888 322.885 294.117 323.081C294.347 323.276 294.498 323.547 294.544 323.845L312.497 411.577Z" fill="#303030"/>
<path d="M232.836 324.008H292.22C297.664 324.006 302.891 321.872 306.782 318.063C310.673 314.254 312.917 309.074 313.035 303.63L315.246 213.387C315.287 211.397 314.936 209.418 314.213 207.563C313.489 205.708 312.407 204.015 311.029 202.578C309.651 201.142 308.003 199.991 306.18 199.192C304.356 198.392 302.393 197.96 300.403 197.919H262.859C259.135 197.92 255.542 199.29 252.763 201.769C249.984 204.248 248.215 207.663 247.791 211.363L232.836 324.008Z" fill="#F0F0F0"/>
<path d="M265.22 324.008H201.951C201.166 324.008 200.413 323.696 199.858 323.14C199.302 322.585 198.99 321.832 198.99 321.047V320.772C198.989 319.703 199.198 318.645 199.606 317.657C200.014 316.67 200.613 315.772 201.369 315.017C202.124 314.261 203.022 313.662 204.009 313.254C204.997 312.846 206.055 312.637 207.124 312.638H265.22V324.008Z" fill="#F0F0F0"/>
<path d="M253.776 38.2349H83.3343V172.169H253.776V38.2349Z" fill="#303030"/>
<path d="M255.775 38.2349H85.3333V172.169H255.775V38.2349Z" fill="#EBEBEB"/>
<path d="M244.555 49.4546H96.5528V160.95H244.555V49.4546Z" fill="white"/>
<path opacity="0.5" d="M96.5528 84.0625V160.95H225.04C228.963 145.045 223.903 129.041 203.8 120.32C186.446 112.823 165.769 120.907 147.728 117.059C126.9 112.611 120.004 95.5444 102.887 86.7612C100.842 85.7134 98.7253 84.8116 96.5528 84.0625Z" fill="#E6E6E6"/>
<path opacity="0.7" d="M96.5528 49.4546V53.8275C110.971 65.5467 128.7 87.6984 147.653 93.683C177.638 103.166 217.943 77.5409 219.768 49.4546H96.5528Z" fill="#E6E6E6"/>
<path d="M218.993 111.362C224.765 126.205 233.873 137.474 244.556 147.532V55.3018C224.016 61.4612 209.248 86.3116 218.993 111.362Z" fill="#E6E6E6"/>
<path d="M312.347 468C446.135 468 554.592 461.668 554.592 453.857C554.592 446.046 446.135 439.714 312.347 439.714C178.56 439.714 70.1033 446.046 70.1033 453.857C70.1033 461.668 178.56 468 312.347 468Z" fill="#F5F5F5"/>
<path d="M92.5298 451.033V453.857H532.165V271.533H502.617L451.854 304.717H403.44L349.154 340.2V354.48H326.828L265.046 394.861H224.003L172.878 428.282H136.358L92.5298 451.033Z" fill="#A4928D"/>
<path opacity="0.2" d="M92.5298 451.033V453.857H532.165V271.533H502.617L451.854 304.717H403.44L349.154 340.2V354.48H326.828L265.046 394.861H224.003L172.878 428.282H136.358L92.5298 451.033Z" fill="black"/>
<path d="M122.078 453.857H532.165V274.357L481.402 307.528H432.988L378.702 343.011V357.304H356.376L294.594 397.684H253.551L202.439 431.105H165.906L122.078 453.857Z" fill="#A4928D"/>
<path opacity="0.1" d="M122.078 453.857H532.165V274.357L481.402 307.528H432.988L378.702 343.011V357.304H356.376L294.594 397.684H253.551L202.439 431.105H165.906L122.078 453.857Z" fill="white"/>
<path d="M208.648 117.084C206.899 119.12 204.9 121.394 203.188 123.631C201.477 125.867 199.602 128.141 197.903 130.452C194.514 134.934 191.461 139.662 188.77 144.595L187.858 146.407L187.521 147.094C187.421 147.282 187.346 147.544 187.246 147.769C186.844 148.919 186.522 150.097 186.284 151.292C185.759 153.891 185.359 156.714 185.035 159.576C184.447 165.298 184.06 171.282 183.698 177.154L176.839 177.767C175.513 171.692 174.678 165.521 174.34 159.313C174.163 156.082 174.204 152.843 174.465 149.618C174.593 147.832 174.873 146.059 175.302 144.32C175.439 143.833 175.539 143.371 175.727 142.859C175.914 142.346 176.089 141.784 176.226 141.459L177.163 139.16C178.441 136.161 179.897 133.24 181.524 130.415C183.086 127.616 184.822 124.967 186.521 122.369C188.221 119.77 190.157 117.246 192.119 114.872C193.093 113.623 194.093 112.374 195.105 111.237C196.117 110.1 197.129 108.913 198.303 107.651L208.648 117.084Z" fill="#E4897B"/>
<path d="M210.909 120.232C209.66 122.544 208.248 124.78 206.886 126.867C204.538 130.477 202.264 133.601 200.639 135.75C199.178 137.686 198.241 138.823 198.241 138.823L179.737 126.217C179.737 126.217 190.982 104.328 199.64 102.928C208.561 101.516 216.719 109.862 210.909 120.232Z" fill="#A4928D"/>
<path opacity="0.3" d="M210.909 120.232C209.66 122.544 208.248 124.78 206.886 126.867C204.538 130.477 202.264 133.601 200.639 135.75C199.178 137.686 198.241 138.823 198.241 138.823L179.737 126.217C179.737 126.217 190.982 104.328 199.64 102.928C208.561 101.516 216.719 109.862 210.909 120.232Z" fill="black"/>
<path d="M243.506 387.177H252.677L253.589 365.925H244.418L243.506 387.177Z" fill="#E4897B"/>
<path d="M154.25 347.584L161.696 352.956L179.262 339.425L171.816 334.053L154.25 347.584Z" fill="#E4897B"/>
<path d="M253.589 365.925L253.126 376.882H243.943L244.406 365.925H253.589Z" fill="#CE6F64"/>
<path d="M171.816 334.053L179.262 339.425L170.192 346.397L162.758 341.025L171.816 334.053Z" fill="#CE6F64"/>
<path d="M234.198 182.739C234.198 182.739 235.248 248.057 227.039 273.67C214.045 314.237 174.79 347.096 174.79 347.096L160.746 336.964C160.746 336.964 193.418 309.202 199.478 275.044C204.862 244.347 202.576 207.815 202.576 182.739H234.198Z" fill="#A4928D"/>
<path opacity="0.7" d="M234.198 182.739C234.198 182.739 235.248 248.057 227.039 273.67C214.045 314.237 174.79 347.096 174.79 347.096L160.746 336.964C160.746 336.964 193.418 309.202 199.478 275.044C204.862 244.347 202.576 207.815 202.576 182.739H234.198Z" fill="white"/>
<path d="M184.023 175.468L187.333 181.415L175.739 183.139C175.739 183.139 174.552 178.141 177.413 174.693L184.023 175.468Z" fill="#E4897B"/>
<path d="M189.083 189.324L179.437 190.298L175.739 183.139L187.333 181.415L189.083 189.324Z" fill="#E4897B"/>
<path d="M242.556 69.3075C242.669 70.0321 243.144 70.5569 243.631 70.5569C244.118 70.5569 244.393 69.8197 244.281 69.0951C244.168 68.3704 243.693 67.8457 243.206 67.8457C242.719 67.8457 242.444 68.5703 242.556 69.3075Z" fill="#263238"/>
<path d="M243.081 70.5815C244.302 72.6776 245.808 74.5949 247.554 76.2788C247.115 76.7214 246.584 77.0626 245.999 77.2785C245.415 77.4943 244.789 77.5795 244.168 77.5281L243.081 70.5815Z" fill="#DE5753"/>
<path d="M239.258 65.6589C239.202 65.6605 239.147 65.6512 239.095 65.6314C239.042 65.6115 238.995 65.5816 238.954 65.5433C238.913 65.505 238.881 65.4591 238.858 65.4082C238.835 65.3573 238.822 65.3023 238.821 65.2466C238.821 65.1859 238.833 65.1259 238.856 65.0701C238.88 65.0143 238.915 64.9638 238.958 64.9217C239.438 64.4297 240.029 64.0596 240.681 63.8423C241.333 63.6249 242.027 63.5667 242.706 63.6723C242.763 63.6827 242.816 63.7043 242.864 63.736C242.912 63.7676 242.953 63.8086 242.984 63.8565C243.016 63.9043 243.037 63.9581 243.048 64.0145C243.058 64.0708 243.056 64.1287 243.044 64.1846C243.033 64.2396 243.012 64.2921 242.981 64.3389C242.95 64.3857 242.911 64.4259 242.864 64.4573C242.818 64.4886 242.765 64.5105 242.711 64.5216C242.656 64.5327 242.599 64.5328 242.544 64.5219C242.004 64.4483 241.453 64.5039 240.939 64.6841C240.424 64.8644 239.959 65.1642 239.583 65.5589C239.539 65.5977 239.487 65.6267 239.431 65.6439C239.375 65.6611 239.316 65.6662 239.258 65.6589Z" fill="#263238"/>
<path d="M218.143 77.3657C219.468 84.0749 220.78 96.3814 216.082 100.854C216.082 100.854 217.919 107.676 230.387 107.676C244.131 107.676 236.947 100.854 236.947 100.854C229.45 99.0676 229.65 93.5203 230.962 88.3603L218.143 77.3657Z" fill="#E4897B"/>
<path d="M210.984 105.402C212.471 103.078 209.972 97.481 209.972 97.481C209.972 97.481 232.074 91.9212 241.095 100.455C242.969 102.216 240.895 104.815 240.895 104.815L210.984 105.402Z" fill="#A4928D"/>
<path d="M165.619 357.354C164.457 357.354 162.758 355.08 162.283 354.268C162.26 354.233 162.247 354.192 162.247 354.149C162.247 354.107 162.26 354.066 162.283 354.031C162.308 353.999 162.341 353.975 162.378 353.96C162.415 353.944 162.456 353.939 162.496 353.943C162.621 353.943 165.632 354.593 166.331 355.78C166.411 355.905 166.462 356.045 166.482 356.192C166.501 356.339 166.488 356.488 166.444 356.629C166.269 357.167 165.944 357.317 165.707 357.342L165.619 357.354ZM162.933 354.493C163.72 355.642 165.019 356.992 165.669 356.917C165.732 356.917 165.919 356.917 166.044 356.492C166.069 356.41 166.076 356.324 166.063 356.24C166.05 356.155 166.018 356.075 165.969 356.005C165.129 355.202 164.074 354.66 162.933 354.443V354.493Z" fill="#A4928D"/>
<path d="M163.957 354.505C163.431 354.518 162.905 354.455 162.396 354.318C162.365 354.298 162.339 354.27 162.322 354.237C162.304 354.204 162.295 354.168 162.295 354.131C162.295 354.094 162.304 354.057 162.322 354.024C162.339 353.992 162.365 353.964 162.396 353.943C162.483 353.868 164.545 352.219 165.906 352.357C166.073 352.375 166.233 352.426 166.379 352.508C166.525 352.589 166.653 352.699 166.756 352.831C166.871 352.95 166.94 353.105 166.952 353.27C166.963 353.434 166.916 353.598 166.819 353.731C166.369 354.281 165.094 354.505 163.957 354.505ZM162.97 354.006C164.132 354.181 166.044 354.006 166.406 353.481C166.436 353.418 166.446 353.347 166.434 353.278C166.423 353.209 166.392 353.145 166.344 353.094C166.279 353.008 166.196 352.936 166.101 352.885C166.006 352.833 165.902 352.802 165.794 352.794C164.752 352.902 163.767 353.325 162.97 354.006Z" fill="#A4928D"/>
<path d="M256.362 387.652C255.42 387.639 254.48 387.552 253.551 387.389C253.507 387.382 253.467 387.361 253.436 387.33C253.404 387.299 253.383 387.258 253.376 387.215C253.369 387.17 253.375 387.124 253.396 387.084C253.416 387.043 253.448 387.01 253.489 386.99C253.626 386.915 256.825 385.078 258.361 385.503C258.504 385.535 258.638 385.596 258.756 385.682C258.875 385.768 258.974 385.877 259.048 386.003C259.146 386.142 259.199 386.307 259.199 386.477C259.199 386.647 259.146 386.813 259.048 386.952C258.686 387.489 257.549 387.652 256.362 387.652ZM254.251 387.065C255.962 387.315 258.286 387.29 258.711 386.702C258.773 386.546 258.773 386.372 258.711 386.215C258.664 386.137 258.601 386.069 258.525 386.017C258.45 385.966 258.364 385.931 258.274 385.915C257.299 385.665 255.375 386.49 254.251 387.065Z" fill="#A4928D"/>
<path d="M253.626 387.339H253.501C253.47 387.317 253.445 387.287 253.43 387.252C253.414 387.216 253.409 387.178 253.414 387.139C253.517 385.833 254.028 384.591 254.875 383.591C255.048 383.448 255.248 383.342 255.462 383.277C255.677 383.213 255.902 383.192 256.125 383.216C256.312 383.195 256.499 383.247 256.648 383.361C256.798 383.475 256.897 383.643 256.924 383.829C257.099 384.866 254.9 386.852 253.801 387.352L253.626 387.339ZM255.875 383.591C255.597 383.596 255.329 383.692 255.113 383.866C254.419 384.663 253.983 385.652 253.863 386.702C255 386.015 256.487 384.453 256.362 383.841C256.362 383.841 256.362 383.629 255.937 383.591H255.875Z" fill="#A4928D"/>
<path d="M162.758 352.881L155.624 345.385C155.496 345.254 155.327 345.171 155.146 345.149C154.965 345.126 154.781 345.165 154.624 345.26L147.49 349.608C147.339 349.698 147.207 349.817 147.102 349.958C146.997 350.099 146.921 350.259 146.878 350.43C146.835 350.601 146.826 350.778 146.852 350.952C146.878 351.126 146.938 351.293 147.028 351.444C147.089 351.539 147.16 351.627 147.241 351.707C149.739 354.205 151.139 355.367 154.275 358.641C156.211 360.652 161.471 367.724 164.132 370.51C166.793 373.296 169.904 371.01 169.055 369.635C165.307 363.463 163.483 357.341 163.383 354.293C163.358 353.761 163.135 353.257 162.758 352.881Z" fill="#263238"/>
<path d="M252.614 386.09H242.619C242.438 386.089 242.261 386.151 242.12 386.264C241.979 386.378 241.882 386.537 241.844 386.715L240.02 394.836C239.942 395.18 240.003 395.542 240.19 395.842C240.377 396.141 240.676 396.355 241.02 396.435C241.128 396.447 241.237 396.447 241.345 396.435C244.968 396.435 250.19 396.16 254.738 396.16C260.048 396.16 264.633 396.448 270.868 396.448C274.616 396.448 275.678 392.637 274.104 392.3C266.92 390.725 261.06 390.55 254.85 386.727C254.177 386.314 253.404 386.094 252.614 386.09Z" fill="#263238"/>
<path opacity="0.3" d="M206.886 126.867C204.537 130.477 202.264 133.601 200.639 135.75C200.827 131.452 201.714 124.505 205.05 119.208C206.262 120.407 206.749 123.506 206.886 126.867Z" fill="black"/>
<path d="M257.374 111.986C257.874 112.773 258.786 113.973 259.623 115.085C260.46 116.197 261.422 117.334 262.372 118.458C264.283 120.695 266.232 122.918 268.269 125.055C272.191 129.3 276.489 133.181 281.113 136.649C282.187 137.434 283.3 138.164 284.449 138.836L285.211 139.273C285.298 139.273 285.336 139.385 285.498 139.435L285.698 139.523L285.973 139.61C286.178 139.673 286.386 139.724 286.598 139.76C289.087 140.108 291.615 140.074 294.094 139.66C299.948 138.734 305.733 137.415 311.41 135.712L314.371 141.959C308.806 145.558 302.773 148.379 296.443 150.343C292.863 151.502 289.109 152.03 285.348 151.904C284.783 151.877 284.22 151.819 283.661 151.729L282.799 151.567L281.875 151.342C281.227 151.166 280.592 150.945 279.976 150.68L279.588 150.518L279.276 150.368L278.651 150.068C277.04 149.281 275.478 148.419 273.954 147.481C268.33 143.819 263.119 139.559 258.411 134.775C256.1 132.439 253.851 130.065 251.74 127.541C250.665 126.292 249.628 125.042 248.591 123.643C247.458 122.195 246.419 120.676 245.48 119.095L257.374 111.986Z" fill="#E4897B"/>
<path d="M309.936 137.374L316.033 130.115L320.181 140.71C320.181 140.71 314.921 143.209 310.823 141.772L309.936 137.374Z" fill="#E4897B"/>
<path d="M324.979 128.541L326.678 137.012L320.181 140.71L316.046 130.115L324.979 128.541Z" fill="#E4897B"/>
<path d="M217.918 71.5685C219.868 80.4642 220.567 85.7741 225.827 89.6722C233.736 95.5443 244.181 89.6722 244.918 80.3892C245.58 72.0183 242.269 58.8747 232.924 56.6508C230.862 56.1551 228.708 56.1955 226.666 56.7681C224.625 57.3407 222.764 58.4265 221.261 59.9221C219.758 61.4176 218.662 63.2731 218.08 65.3118C217.497 67.3505 217.446 69.5045 217.931 71.5685H217.918Z" fill="#E4897B"/>
<path d="M214.158 54.1899C206.349 54.4023 205.412 62.086 209.285 64.3474C209.285 64.3474 204.787 66.5088 207.099 71.6688C210.622 79.5025 217.369 88.1108 224.265 87.636C232.824 87.0488 235.26 77.7284 234.96 68.5329C239.47 64.2724 236.747 62.1984 241.207 59.5997C249.103 55.002 253.101 41.8209 239.958 42.0208C226.489 42.2332 234.086 53.6526 214.158 54.1899Z" fill="#263238"/>
<path d="M210.26 63.2224C210.26 63.2224 207.249 64.7841 202.613 62.0854C204.225 66.0335 209.173 67.6577 210.26 63.2224Z" fill="#263238"/>
<path d="M230.263 70.7442C230.505 72.9957 231.484 75.1041 233.049 76.7413C235.123 78.8777 237.159 77.4284 237.422 74.7297C237.659 72.3059 236.859 68.2704 234.373 67.1459C231.887 66.0215 230 68.0205 230.263 70.7442Z" fill="#E4897B"/>
<path d="M180.762 344.135L175.002 347.571L159.659 336.502L164.769 332.591L180.762 344.135Z" fill="#A4928D"/>
<path d="M225.028 193.959C223.291 205.728 229.425 238.5 231.549 249.232C233.773 229.167 234.186 205.366 234.223 192.372C229.725 189.324 225.827 188.536 225.028 193.959Z" fill="#A4928D"/>
<path opacity="0.4" d="M225.028 193.959C223.291 205.728 229.425 238.5 231.549 249.232C233.773 229.167 234.186 205.366 234.223 192.372C229.725 189.324 225.827 188.536 225.028 193.959Z" fill="white"/>
<path d="M251.602 182.739C251.602 182.739 265.433 241.336 266.407 269.322C267.494 300.719 256.537 374.758 256.537 374.758H240.995C240.995 374.758 239.083 300.144 238.383 271.546C237.634 240.374 219.343 182.739 219.343 182.739H251.602Z" fill="#A4928D"/>
<path opacity="0.7" d="M251.602 182.739C251.602 182.739 265.433 241.336 266.407 269.322C267.494 300.719 256.537 374.758 256.537 374.758H240.995C240.995 374.758 239.083 300.144 238.383 271.546C237.634 240.374 219.343 182.739 219.343 182.739H251.602Z" fill="white"/>
<path d="M259.536 368.598C259.611 368.598 258.661 375.045 258.661 375.045H239.745L239.233 369.286L259.536 368.598Z" fill="#A4928D"/>
<path d="M255.575 133.326C255.575 136.449 255.5 139.885 255.325 143.671C254.875 153.966 253.751 166.797 251.577 182.739H202.513C202.176 175.243 206.911 138.436 199.64 102.928C205.091 101.882 210.604 101.189 216.144 100.854C223.094 100.454 230.06 100.454 237.009 100.854C241.771 101.33 246.491 102.166 251.127 103.353C251.127 103.353 255.588 108.513 255.575 133.326Z" fill="#A4928D"/>
<path opacity="0.3" d="M255.575 133.326C255.575 136.449 255.5 139.885 255.325 143.671C254.875 153.966 253.751 166.797 251.577 182.739H202.513C202.176 175.243 206.911 138.436 199.64 102.928C205.091 101.882 210.604 101.189 216.144 100.854C223.094 100.454 230.06 100.454 237.009 100.854C241.771 101.33 246.491 102.166 251.127 103.353C251.127 103.353 255.588 108.513 255.575 133.326Z" fill="black"/>
<path opacity="0.3" d="M255.575 133.326C255.575 136.449 255.5 139.885 255.325 143.671C249.566 138.049 249.178 126.567 249.178 126.567L255.575 133.326Z" fill="black"/>
<path d="M237.984 114.11C239.071 122.856 258.911 141.272 258.911 141.272L276.777 127.116C272.288 120.469 267.034 114.372 261.122 108.95C248.204 97.7308 236.672 103.653 237.984 114.11Z" fill="#A4928D"/>
<path opacity="0.3" d="M237.984 114.11C239.071 122.856 258.911 141.272 258.911 141.272L276.777 127.116C272.288 120.469 267.034 114.372 261.122 108.95C248.204 97.7308 236.672 103.653 237.984 114.11Z" fill="black"/>
<path d="M447.319 296.746L438.136 297.646L428.578 275.781L437.761 274.882L447.319 296.746Z" fill="#E4897B"/>
<path d="M508.439 269.26L500.443 274.407L485.95 257.553L493.946 252.405L508.439 269.26Z" fill="#E4897B"/>
<path d="M428.591 275.794L433.513 287.063H443.096L437.774 274.894L428.591 275.794Z" fill="#CE6F64"/>
<path d="M493.959 252.405L485.95 257.553L493.434 266.236L501.43 261.089L493.959 252.405Z" fill="#CE6F64"/>
<path d="M368.57 63.3227C368.37 66.7211 367.945 69.8195 367.458 73.043C366.971 76.2664 366.283 79.3899 365.509 82.5508C363.998 88.9894 361.659 95.2049 358.55 101.042C357.731 102.556 356.817 104.016 355.814 105.415C354.839 106.801 353.802 108.076 352.765 109.313C350.691 111.812 348.542 114.123 346.356 116.409C341.945 120.945 337.448 125.28 332.612 129.415L329.139 126.067C332.975 121.207 336.91 116.397 340.646 111.524C344.382 106.652 348.255 101.804 350.641 96.9313C353.079 91.6179 354.914 86.0484 356.113 80.3269C356.776 77.4283 357.275 74.4673 357.75 71.5812C358.225 68.6951 358.575 65.5716 358.837 62.8354L368.57 63.3227Z" fill="#E4897B"/>
<path d="M364.747 1.37797C358.05 1.37797 350.454 8.56196 350.766 18.8694C351.078 29.1769 353.265 44.4819 337.335 58.65C343.057 71.1439 369.969 82.8507 387.935 74.0425C404.965 65.6965 397.931 19.4316 385.799 7.31257C379.002 0.528385 371.069 -1.7455 364.747 1.37797Z" fill="#263238"/>
<path d="M375.866 64.4972C375.367 67.5207 372.855 73.2429 370.869 77.4908C369.395 80.5643 368.195 82.8757 368.195 82.8757L366.446 82.1011L351.966 75.6542C353.065 67.8456 354.852 59.4122 363.46 55.5765C368.832 53.2027 376.753 59.0998 375.866 64.4972Z" fill="#A4928D"/>
<path opacity="0.6" d="M375.866 64.4972C375.367 67.5207 372.855 73.2429 370.869 77.4908C369.395 80.5643 368.195 82.8757 368.195 82.8757L366.446 82.1011L351.966 75.6542C353.065 67.8456 354.852 59.4122 363.46 55.5765C368.832 53.2027 376.753 59.0998 375.866 64.4972Z" fill="white"/>
<path d="M370.831 77.491C369.357 80.5645 368.158 82.8759 368.158 82.8759L366.408 82.1013C366.646 79.0153 367.258 74.1552 368.907 71.9688C369.935 73.6513 370.591 75.5342 370.831 77.491Z" fill="#A4928D"/>
<path opacity="0.5" d="M370.831 77.578C369.357 80.6515 368.158 82.9628 368.158 82.9628L366.408 82.1882C366.646 79.1022 367.258 74.2421 368.907 72.0557C369.935 73.7383 370.591 75.6211 370.831 77.578Z" fill="white"/>
<path d="M419.795 98.3558L382.938 109.975C357.45 59.5498 361.074 56.8761 361.074 56.8761C361.074 56.8761 366.958 53.5152 373.08 50.7166L375.866 49.4672C381.304 47.3026 386.891 45.5322 392.583 44.1698C393.42 43.9449 394.257 43.745 395.082 43.5451C399.615 42.5234 404.204 41.7683 408.825 41.2837C409.375 48.2678 409.925 54.1774 410.524 59.3124C411.299 66.0091 412.136 71.369 413.023 76.0042C414.683 83.6228 416.947 91.097 419.795 98.3558Z" fill="#A4928D"/>
<path opacity="0.6" d="M419.795 98.3558L382.938 109.975C357.45 59.5498 361.074 56.8761 361.074 56.8761C361.074 56.8761 366.958 53.5152 373.08 50.7166L375.866 49.4672C381.304 47.3026 386.891 45.5322 392.583 44.1698C393.42 43.9449 394.257 43.745 395.082 43.5451C399.615 42.5234 404.204 41.7683 408.825 41.2837C409.375 48.2678 409.925 54.1774 410.524 59.3124C411.299 66.0091 412.136 71.369 413.023 76.0042C414.683 83.6228 416.947 91.097 419.795 98.3558Z" fill="white"/>
<path d="M382.938 109.975C382.938 109.975 381.689 185.438 391.546 212.7C401.042 238.837 429.365 283.765 429.365 283.765L445.782 283.34C445.782 283.34 419.707 226.455 415.422 203.954C408.338 166.635 409.9 101.504 409.9 101.504L382.938 109.975Z" fill="#A4928D"/>
<path opacity="0.4" d="M382.938 109.975C382.938 109.975 381.689 185.438 391.546 212.7C401.042 238.837 429.365 283.765 429.365 283.765L445.782 283.34C445.782 283.34 419.707 226.455 415.422 203.954C408.338 166.635 409.9 101.504 409.9 101.504L382.938 109.975Z" fill="black"/>
<path opacity="0.3" d="M397.681 116.459L402.091 103.965L409.9 101.467C409.9 101.467 409.188 131.115 410.899 161.862C403.815 148.281 397.681 123.293 397.681 116.459Z" fill="black"/>
<path d="M391.059 107.576C391.059 107.576 416.671 166.16 433.226 199.506C446.594 226.43 488.199 262.575 488.199 262.575L499.593 254.667C499.593 254.667 468.296 211.863 459.063 193.596C429.515 135.15 436.799 111.062 419.807 98.3555L391.059 107.576Z" fill="#A4928D"/>
<path opacity="0.4" d="M391.059 107.576C391.059 107.576 416.671 166.16 433.226 199.506C446.594 226.43 488.199 262.575 488.199 262.575L499.593 254.667C499.593 254.667 468.296 211.863 459.063 193.596C429.515 135.15 436.799 111.062 419.807 98.3555L391.059 107.576Z" fill="black"/>
<path d="M331.363 125.18L323.017 126.729L328.927 134.725C328.927 134.725 333.287 131.689 334.199 127.841L331.363 125.18Z" fill="#E4897B"/>
<path d="M317.545 133.051L323.03 138.174L328.914 134.725L323.017 126.729L317.545 133.051Z" fill="#E4897B"/>
<path d="M497.494 271.883L506.178 265.636C506.325 265.528 506.506 265.478 506.688 265.494C506.869 265.51 507.039 265.592 507.165 265.724L513.087 271.883C513.356 272.183 513.496 272.578 513.475 272.981C513.454 273.384 513.274 273.762 512.974 274.032L512.837 274.145C509.763 276.256 508.177 277.131 504.366 279.867C502.017 281.553 497.07 285.627 493.821 287.95C490.573 290.274 488.112 287.188 489.248 285.939C494.371 280.292 495.733 276.443 496.545 273.258C496.694 272.704 497.03 272.219 497.494 271.883Z" fill="#263238"/>
<path d="M436.924 294.81H448.169C448.37 294.815 448.565 294.884 448.724 295.008C448.884 295.132 449 295.303 449.056 295.497L451.554 304.417C451.606 304.595 451.622 304.78 451.601 304.964C451.581 305.147 451.524 305.324 451.435 305.486C451.345 305.647 451.225 305.789 451.08 305.904C450.936 306.019 450.77 306.104 450.592 306.154C450.456 306.173 450.317 306.173 450.18 306.154H424.18C420.057 306.154 419.183 301.981 420.907 301.606C428.553 299.907 432.963 297.583 435.325 295.359C435.769 294.979 436.34 294.783 436.924 294.81Z" fill="#263238"/>
<path d="M395.107 43.5698V44.232C395.107 44.6193 394.845 53.5649 385.699 60.624L384.775 61.3361L383.65 61.0863C378.803 60.0368 375.579 58.0253 374.042 55.1142C373.33 53.7629 373.006 52.2407 373.105 50.7163L375.891 49.4669C381.329 47.3023 386.916 45.5319 392.608 44.1695C393.433 43.9696 394.27 43.7572 395.107 43.5698Z" fill="white"/>
<path d="M384.987 25.8911C385.637 31.6008 387.698 41.7958 392.596 44.1947C392.596 44.1947 392.471 52.2407 384.162 58.6501C373.155 56.2513 375.879 49.4921 375.879 49.4921C381.426 46.1562 379.864 41.7584 377.491 37.9102L384.987 25.8911Z" fill="#E4897B"/>
<path d="M381.938 30.7886L377.503 37.8976C378.067 38.7906 378.552 39.7312 378.952 40.7087C381.139 39.6467 383.95 36.4983 383.425 34.0245C383.127 32.8655 382.624 31.7695 381.938 30.7886Z" fill="#CE6F64"/>
<path d="M382.388 13.1595C385.537 22.0677 387.048 25.7659 384.562 32.0753C380.814 41.5582 369.195 43.4697 363.447 35.6985C358.287 28.6895 354.014 15.321 361.036 8.21197C363.442 5.78651 366.712 4.41602 370.129 4.40196C373.545 4.38791 376.827 5.73143 379.252 8.13701C380.678 9.54087 381.753 11.2618 382.388 13.1595Z" fill="#E4897B"/>
<path d="M370.594 2.77734C367.57 6.06324 373.78 19.8065 383.25 21.918C392.721 24.0295 385.074 9.08676 385.074 9.08676L370.594 2.77734Z" fill="#263238"/>
<path d="M371.581 6.6252C371.931 10.3734 356.876 16.0331 355.589 18.8067C356.213 14.2965 356.426 9.01153 362.111 5.26336C367.795 1.5152 372.481 2.97698 372.481 2.97698L371.581 6.6252Z" fill="#263238"/>
<path d="M370.469 6.77539C370.469 6.77539 368.807 11.0858 362.473 16.3582C367.467 14.9321 371.746 11.6871 374.467 7.26265L370.469 6.77539Z" fill="#263238"/>
<path d="M387.773 20.3933C388.049 22.1988 387.6 24.0401 386.524 25.5158C385.087 27.4649 382.888 26.5403 382.051 24.4164C381.289 22.4923 381.114 19.1689 383.15 17.982C383.503 17.7791 383.892 17.6478 384.295 17.5957C384.699 17.5436 385.108 17.5718 385.501 17.6786C385.893 17.7855 386.261 17.9688 386.582 18.2181C386.903 18.4675 387.172 18.7779 387.373 19.1315C387.597 19.5177 387.734 19.9485 387.773 20.3933Z" fill="#E4897B"/>
<path d="M419.62 96.0191L422.331 98.7928C422.544 99.0051 422.331 99.3675 421.894 99.4924L383.275 111.711C383.148 111.768 383.006 111.782 382.871 111.75C382.736 111.718 382.614 111.643 382.526 111.537L381.151 108.351C381.064 108.126 381.289 107.851 381.651 107.726L418.933 95.9316C419.045 95.8841 419.168 95.8671 419.288 95.8825C419.409 95.8978 419.523 95.945 419.62 96.0191Z" fill="#263238"/>
<path d="M369.17 21.5682C369.47 22.2679 369.332 23.005 368.87 23.1925C368.408 23.3799 367.795 22.9801 367.496 22.2679C367.196 21.5558 367.333 20.8311 367.795 20.6437C368.258 20.4563 368.87 20.8561 369.17 21.5682Z" fill="#263238"/>
<path d="M361.186 24.9414C361.486 25.6535 361.348 26.3782 360.886 26.5781C360.424 26.778 359.812 26.3657 359.512 25.6535C359.212 24.9414 359.349 24.2167 359.812 24.0168C360.274 23.8169 360.886 24.2417 361.186 24.9414Z" fill="#263238"/>
<path d="M360.024 23.979L358.125 24.2039C358.125 24.2039 359.562 25.1659 360.024 23.979Z" fill="#263238"/>
<path d="M363.997 25.0913C364.051 26.9722 363.845 28.8514 363.385 30.6761C363.855 30.7794 364.343 30.7793 364.813 30.6758C365.283 30.5722 365.725 30.3677 366.109 30.0764L363.997 25.0913Z" fill="#DE5753"/>
<path d="M370.594 31.5879C370.545 31.5847 370.498 31.5654 370.461 31.5331C370.424 31.5007 370.398 31.4571 370.388 31.4088C370.378 31.3606 370.385 31.3104 370.406 31.266C370.427 31.2216 370.463 31.1855 370.506 31.1631C371.393 30.8085 372.184 30.2507 372.815 29.5346C373.447 28.8185 373.901 27.964 374.142 27.0401C374.145 27.0121 374.154 26.9851 374.168 26.9605C374.181 26.9358 374.2 26.9142 374.222 26.8968C374.244 26.8793 374.269 26.8665 374.296 26.8589C374.323 26.8513 374.352 26.8492 374.38 26.8527C374.409 26.8572 374.438 26.8677 374.463 26.8834C374.489 26.8991 374.511 26.9198 374.529 26.9443C374.546 26.9688 374.559 26.9965 374.565 27.0258C374.572 27.0551 374.572 27.0855 374.567 27.1151C374.323 28.1169 373.841 29.0452 373.163 29.8215C372.484 30.5979 371.629 31.1995 370.669 31.5754L370.594 31.5879Z" fill="#263238"/>
<path d="M370.307 18.0073C370.232 18.0199 370.156 18.0199 370.082 18.0073C369.597 17.7166 369.052 17.5417 368.488 17.4961C367.925 17.4506 367.358 17.5358 366.833 17.7449C366.729 17.7981 366.607 17.8083 366.495 17.7733C366.383 17.7383 366.289 17.6609 366.234 17.5575C366.18 17.451 366.169 17.3278 366.204 17.2137C366.239 17.0996 366.317 17.0035 366.421 16.9453C367.077 16.6603 367.792 16.5375 368.505 16.5876C369.218 16.6376 369.909 16.8589 370.519 17.2327C370.621 17.2927 370.696 17.3907 370.726 17.5054C370.757 17.62 370.74 17.7421 370.681 17.8449C370.635 17.8989 370.578 17.9416 370.513 17.9697C370.448 17.9979 370.377 18.0108 370.307 18.0073Z" fill="#263238"/>
<path d="M355.826 22.8426H355.739C355.682 22.8321 355.628 22.8105 355.58 22.7791C355.531 22.7476 355.49 22.7069 355.457 22.6593C355.425 22.6117 355.402 22.5581 355.39 22.5017C355.379 22.4452 355.378 22.387 355.389 22.3304C355.51 21.6204 355.8 20.9499 356.235 20.3758C356.67 19.8017 357.237 19.3408 357.888 19.032C357.999 18.9902 358.122 18.9928 358.231 19.0394C358.341 19.0859 358.428 19.1727 358.475 19.2819C358.521 19.3913 358.522 19.5144 358.477 19.6243C358.433 19.7343 358.347 19.8223 358.238 19.8691C357.721 20.1208 357.272 20.4927 356.929 20.9535C356.585 21.4143 356.357 21.9507 356.263 22.5178C356.24 22.6146 356.184 22.7002 356.104 22.7595C356.024 22.8189 355.926 22.8483 355.826 22.8426Z" fill="#263238"/>
<path d="M414.485 50.1294C415.972 51.2414 417.221 52.2783 418.52 53.4028C419.82 54.5272 421.019 55.6517 422.269 56.8136C424.705 59.1625 427.029 61.6238 429.265 64.1975C431.515 66.7845 433.601 69.5093 435.512 72.356C436.012 73.0557 436.449 73.8178 436.911 74.5425C437.374 75.2671 437.836 76.0043 438.248 76.7664C438.661 77.5285 439.098 78.2407 439.498 79.1027L440.16 80.4771L440.697 81.8889C441.845 85.4335 442.385 89.1464 442.296 92.871C442.22 96.3364 441.848 99.7889 441.184 103.191C440.521 106.501 439.687 109.775 438.686 112.999C437.678 116.205 436.498 119.353 435.15 122.432L430.639 120.757C431.414 117.759 432.151 114.61 432.701 111.499C433.314 108.419 433.76 105.308 434.038 102.179C434.34 99.1485 434.411 96.0996 434.25 93.0584C434.158 91.6162 433.979 90.181 433.713 88.7605C433.453 87.4457 433.072 86.1576 432.576 84.9124L432.201 84.0503L431.776 83.2507C431.439 82.676 430.977 82.0013 430.527 81.3766C430.077 80.7519 429.702 80.1272 429.278 79.49C428.853 78.8529 428.428 78.2407 427.941 77.6285C426.129 75.1297 424.068 72.8683 422.019 70.5569C419.97 68.2455 417.721 66.0591 415.434 63.9476C414.297 62.8732 413.148 61.8237 411.974 60.7992C410.799 59.7747 409.575 58.7502 408.55 57.8756L414.485 50.1294Z" fill="#E4897B"/>
<path d="M432.089 117.771L425.242 122.769L433.988 127.392C433.988 127.392 436.599 122.769 435.75 118.908L432.089 117.771Z" fill="#E4897B"/>
<path d="M423.068 130.865L430.24 133.089L434.038 127.416L425.242 122.794L423.068 130.865Z" fill="#E4897B"/>
<path d="M494.209 275.794H494.059C493.841 275.768 493.634 275.685 493.458 275.553C493.283 275.421 493.145 275.246 493.059 275.044C492.991 274.927 492.955 274.793 492.955 274.657C492.955 274.521 492.991 274.387 493.059 274.27C493.671 273.22 497.107 273.02 497.494 273.02C497.536 273.021 497.577 273.032 497.612 273.054C497.647 273.076 497.676 273.108 497.694 273.145C497.719 273.182 497.732 273.226 497.732 273.27C497.732 273.315 497.719 273.358 497.694 273.395C496.87 274.307 495.383 275.794 494.209 275.794ZM496.957 273.508C495.583 273.607 493.759 273.932 493.446 274.482C493.409 274.53 493.389 274.59 493.389 274.651C493.389 274.712 493.409 274.771 493.446 274.819C493.5 274.955 493.589 275.075 493.702 275.167C493.816 275.259 493.952 275.32 494.096 275.344C494.758 275.407 495.795 274.732 496.957 273.508Z" fill="#A4928D"/>
<path d="M497.257 273.482C496.108 273.482 493.846 272.845 493.421 271.921C493.347 271.758 493.331 271.574 493.377 271.401C493.422 271.228 493.526 271.076 493.671 270.971C493.8 270.857 493.95 270.77 494.113 270.716C494.277 270.662 494.45 270.643 494.621 270.659C495.995 270.796 497.607 273.02 497.669 273.158C497.688 273.192 497.698 273.231 497.698 273.27C497.698 273.309 497.688 273.348 497.669 273.383C497.654 273.418 497.629 273.449 497.599 273.473C497.569 273.497 497.533 273.513 497.494 273.52L497.257 273.482ZM494.483 271.109C494.391 271.107 494.299 271.123 494.213 271.158C494.127 271.192 494.049 271.243 493.984 271.309C493.771 271.496 493.796 271.633 493.834 271.733C494.109 272.346 495.883 272.983 497.045 272.983C496.47 272.271 495.395 271.146 494.546 271.059L494.483 271.109Z" fill="#A4928D"/>
<path d="M431.914 296.671C431.144 296.727 430.377 296.543 429.715 296.146C429.546 296.018 429.407 295.854 429.308 295.666C429.209 295.478 429.151 295.271 429.14 295.059C429.123 294.94 429.141 294.819 429.192 294.71C429.243 294.601 429.325 294.51 429.428 294.447C430.44 293.76 434.288 295.497 435.05 295.859C435.092 295.878 435.128 295.91 435.15 295.95C435.173 295.991 435.182 296.038 435.175 296.084C435.171 296.131 435.152 296.176 435.12 296.212C435.089 296.248 435.047 296.273 435 296.284C433.987 296.519 432.953 296.648 431.914 296.671ZM430.115 294.722C429.962 294.711 429.81 294.746 429.678 294.822C429.647 294.848 429.623 294.881 429.608 294.918C429.593 294.954 429.587 294.995 429.59 295.034C429.594 295.182 429.632 295.326 429.701 295.456C429.771 295.586 429.87 295.699 429.99 295.784C430.64 296.284 432.201 296.346 434.225 295.984C432.93 295.349 431.543 294.923 430.115 294.722Z" fill="#A4928D"/>
<path d="M434.95 296.284H434.862C433.613 295.759 431.027 293.697 431.177 292.635C431.177 292.398 431.364 292.111 431.939 292.036C434.188 291.773 435.137 295.784 435.175 296.021C435.182 296.062 435.179 296.104 435.166 296.143C435.153 296.182 435.13 296.218 435.1 296.246C435.056 296.277 435.003 296.29 434.95 296.284ZM432.151 292.473H432.001C431.764 292.473 431.627 292.573 431.614 292.685C431.539 293.298 433.313 294.934 434.6 295.646C434.313 294.659 433.538 292.473 432.151 292.473Z" fill="#A4928D"/>
<path d="M368.008 20.5933L366.109 20.8182C366.109 20.8182 367.533 21.7802 368.008 20.5933Z" fill="#263238"/>
<path d="M427.054 284.639L447.319 284.127L446.157 277.893L424.018 278.942L427.054 284.639Z" fill="#A4928D"/>
<path opacity="0.5" d="M427.054 284.639L447.319 284.127L446.157 277.893L424.018 278.942L427.054 284.639Z" fill="white"/>
<path d="M488.774 266.348L502.167 256.815L499.131 250.968L484.413 262.1L488.774 266.348Z" fill="#A4928D"/>
<path opacity="0.5" d="M488.774 266.348L502.167 256.815L499.131 250.968L484.413 262.1L488.774 266.348Z" fill="white"/>
<path d="M415.934 101.779L416.934 101.454C417.134 101.391 417.259 101.242 417.196 101.129L415.372 96.9936C415.372 96.8686 415.122 96.8187 414.922 96.8811L413.923 97.206C413.723 97.2684 413.598 97.4184 413.66 97.5308L415.472 101.666C415.526 101.734 415.6 101.782 415.684 101.802C415.768 101.822 415.856 101.814 415.934 101.779Z" fill="#A4928D"/>
<path d="M386.199 111.224L387.198 110.912C387.398 110.837 387.511 110.687 387.461 110.575L385.637 106.439C385.637 106.314 385.374 106.264 385.174 106.327L384.175 106.652C383.975 106.652 383.862 106.864 383.912 106.976L385.737 111.112C385.787 111.224 386.061 111.224 386.199 111.224Z" fill="#A4928D"/>
<path d="M401.054 106.477L402.054 106.164C402.095 106.163 402.135 106.153 402.171 106.135C402.208 106.117 402.24 106.09 402.265 106.058C402.29 106.026 402.308 105.988 402.317 105.948C402.326 105.908 402.325 105.867 402.316 105.827L400.492 101.691C400.492 101.579 400.229 101.529 400.03 101.591L399.043 101.904C398.843 101.966 398.718 102.116 398.768 102.241L400.592 106.377C400.648 106.44 400.723 106.484 400.807 106.502C400.89 106.52 400.976 106.511 401.054 106.477Z" fill="#A4928D"/>
<path opacity="0.4" d="M415.934 101.779L416.934 101.454C417.134 101.391 417.259 101.242 417.196 101.129L415.372 96.9936C415.372 96.8686 415.122 96.8187 414.922 96.8811L413.923 97.206C413.723 97.2684 413.598 97.4184 413.66 97.5308L415.472 101.666C415.526 101.734 415.6 101.782 415.684 101.802C415.768 101.822 415.856 101.814 415.934 101.779Z" fill="black"/>
<path opacity="0.4" d="M386.199 111.224L387.198 110.912C387.398 110.837 387.511 110.687 387.461 110.575L385.637 106.439C385.637 106.314 385.374 106.264 385.174 106.327L384.175 106.652C383.975 106.652 383.862 106.864 383.912 106.976L385.737 111.112C385.787 111.224 386.061 111.224 386.199 111.224Z" fill="black"/>
<path opacity="0.4" d="M401.054 106.477L402.054 106.164C402.095 106.163 402.135 106.153 402.171 106.135C402.208 106.117 402.24 106.09 402.265 106.058C402.29 106.026 402.308 105.988 402.317 105.948C402.326 105.908 402.325 105.867 402.316 105.827L400.492 101.691C400.492 101.579 400.229 101.529 400.03 101.591L399.043 101.904C398.843 101.966 398.718 102.116 398.768 102.241L400.592 106.377C400.648 106.44 400.723 106.484 400.807 106.502C400.89 106.52 400.976 106.511 401.054 106.477Z" fill="black"/>
<path d="M413.136 76.0288C409.6 71.0313 406.214 59.3994 407.089 55.0391L410.587 59.337C411.361 66.0337 412.199 71.3936 413.136 76.0288Z" fill="#A4928D"/>
<path opacity="0.5" d="M413.136 76.0288C409.6 71.0313 406.214 59.3994 407.089 55.0391L410.587 59.337C411.361 66.0337 412.199 71.3936 413.136 76.0288Z" fill="white"/>
<path d="M408.888 41.2582C413.673 41.0458 423.081 52.8026 423.081 52.8026L413.311 66.5459C413.311 66.5459 402.341 57.8001 401.491 51.7156C400.767 46.6431 402.791 41.5831 408.888 41.2582Z" fill="#A4928D"/>
<path opacity="0.6" d="M408.888 41.2582C413.673 41.0458 423.081 52.8026 423.081 52.8026L413.311 66.5459C413.311 66.5459 402.341 57.8001 401.491 51.7156C400.767 46.6431 402.791 41.5831 408.888 41.2582Z" fill="white"/>
<path d="M468.796 378.594C448.269 372.347 435.55 349.97 435.55 349.97C435.55 349.97 429.04 349.608 428.728 355.48C428.191 365.8 433.801 373.246 437.249 376.807L427.379 376.257C423.861 376.059 420.333 376.43 416.934 377.357L413.66 378.256C410.938 379.007 408.617 380.793 407.195 383.234C405.773 385.674 405.362 388.574 406.052 391.312L410.749 410.503C412.163 416.275 415.676 421.313 420.603 424.634C425.53 427.956 431.518 429.323 437.399 428.469C447.456 427.008 463.111 424.721 465.822 424.234L472.969 423.634L475.468 380.58L468.796 378.594Z" fill="white"/>
<path d="M500.93 372.684H473.281C471.121 372.684 469.371 374.435 469.371 376.595V425.496C469.371 427.656 471.121 429.406 473.281 429.406H500.93C503.09 429.406 504.841 427.656 504.841 425.496V376.595C504.841 374.435 503.09 372.684 500.93 372.684Z" fill="#A4928D"/>
<path opacity="0.3" d="M500.93 372.684H473.281C471.121 372.684 469.371 374.435 469.371 376.595V425.496C469.371 427.656 471.121 429.406 473.281 429.406H500.93C503.09 429.406 504.841 427.656 504.841 425.496V376.595C504.841 374.435 503.09 372.684 500.93 372.684Z" fill="black"/>
</svg>
